<svg xmlns="http://www.w3.org/2000/svg" width="18" height="18" viewBox="0 0 18 18" fill="none"><path d="M17.5 0.976562C17.5 0.703125 17.3828 0.46875 17.1875 0.273438C16.9922 0.117188 16.7578 0 16.5234 0H0.976562C0.664062 0 0.429688 0.117188 0.273438 0.273438C0.078125 0.46875 0 0.703125 0 0.976562V16.5234C0 16.7969 0.078125 17.0312 0.273438 17.2266C0.429688 17.4219 0.664062 17.5 0.976562 17.5H9.33594V10.7031H7.07031V8.08594H9.33594V6.13281C9.33594 5.03906 9.64844 4.17969 10.2734 3.55469C10.8984 2.96875 11.7188 2.65625 12.7344 2.65625C13.5156 2.65625 14.2188 2.69531 14.7656 2.73438V5.11719H13.3594C12.8516 5.11719 12.5 5.23438 12.3047 5.46875C12.1484 5.66406 12.0703 5.97656 12.0703 6.40625V8.08594H14.6875L14.3359 10.7031H12.0703V17.5H16.5234C16.7969 17.5 17.0312 17.4219 17.2266 17.2266C17.3828 17.0312 17.5 16.7969 17.5 16.5234V0.976562Z" fill="black"></path></svg>