<svg xmlns="http://www.w3.org/2000/svg" width="161" height="170" viewBox="0 0 161 170" fill="none"><path d="M25.8217 0.46436L0 39.3802L54.2933 7.02919C46.3435 1.46978 36.1134 -1.13249 25.8217 0.46436Z" transform="translate(46.7178)" fill="#F2C94C"></path><path d="M26.0821 -5.64028e-08C8.88823 5.44112 -1.83486 21.8828 0.260453 39.0342L26.0821 -5.64028e-08Z" transform="translate(40.541 1.82458)" fill="#F2C94C"></path><path d="M-1.8807e-06 37.6739C16.1463 31.937 26.2531 16.3825 24.6508 9.02446e-07L-1.8807e-06 37.6739Z" transform="translate(91.8291 33.0521)" fill="#F2C94C"></path><path d="M51.9515 0L-2.35088e-07 30.9316L62.4897 15.9685C60.3944 9.64026 56.6968 4.19913 51.9515 0Z" transform="translate(52.5098 9.74963)" fill="#F2C94C"></path><path d="M11.2161 31.8187L63.599 4.51223e-07L-2.9386e-08 15.1997C2.09532 21.8828 6.03944 27.5013 11.2161 31.8187Z" transform="translate(42.2803 32.0464)" fill="#F2C94C"></path><path d="M28.8414 38.7976L54.2933 4.51223e-07L2.35088e-07 33.0016C8.19638 38.3836 18.4881 40.7493 28.8414 38.7976Z" transform="translate(56.9473 33.5249)" fill="#F2C94C"></path><path d="M1.2207e-05 7.7931C1.2207e-05 5.1826 1.2207e-05 2.57211 1.2207e-05 -5.8578e-07C1.2207e-05 2.6105 1.2207e-05 5.1826 1.2207e-05 7.7931Z" transform="translate(105.816 115.875)" fill="white"></path><path d="M15.3104 6.87175C15.5493 5.83523 15.7882 4.79871 16.0271 3.76219C16.266 2.68728 16.4651 1.61237 16.704 0.575845C16.8235 0.115169 16.5846 -2.9289e-07 16.1466 -2.9289e-07C14.3149 -2.9289e-07 12.4832 -1.45873e-07 10.6914 0.0383895C10.4525 0.0383895 10.0941 0.307118 10.0543 0.499066C9.895 0.959742 9.895 1.4972 9.81536 1.99626C9.45699 4.22286 9.09862 6.44947 8.74025 8.67607C8.70043 8.90641 8.54116 9.13674 8.46152 9.36708C8.34206 9.36708 8.26242 9.32869 8.14297 9.32869C8.06333 8.63768 7.94387 7.94666 7.86424 7.29404C7.50587 5.06744 7.14749 2.84084 6.82894 0.614235C6.78912 0.230338 6.62985 0.0767794 6.23166 0.0767794C4.32035 0.0767794 2.40904 0.0767794 0.497736 0.0767794C0.0995473 0.0767794 -0.0597272 0.268728 0.0199107 0.614235C0.219005 1.53559 0.457915 2.45694 0.65701 3.37829C0.975561 4.79871 1.29412 6.18074 1.61267 7.60116C1.93122 9.05996 2.20995 10.5188 2.60814 11.9392C2.80724 12.5918 2.92669 13.206 2.96651 13.8203L13.9963 12.5918C14.1158 12.0927 14.2751 11.6321 14.3945 11.133C14.7131 9.63581 15.0316 8.25378 15.3104 6.87175Z" transform="translate(43.3203 100.212)" fill="white"></path><path d="M6.73265 9.62759C6.77247 8.74463 6.73265 7.82327 6.73265 6.94031C6.73265 6.01896 7.01138 5.59667 7.64848 5.59667C8.28558 5.59667 8.44486 5.90379 8.44486 6.94031C8.44486 7.97683 8.48468 9.05174 8.44486 10.0883C8.44486 10.5873 8.64396 10.7793 9.16161 10.7793C10.0376 10.7409 10.8738 10.7793 11.7498 10.7793C12.6657 10.7793 13.5815 10.7793 14.4973 10.7793C14.9752 10.7793 15.2141 10.6257 15.1743 10.1267C15.0946 8.36073 15.0946 6.5948 14.9354 4.82888C14.7363 2.83261 13.5815 1.37381 11.6304 0.682791C9.12178 -0.200172 6.53356 -0.200173 3.98515 0.529231C1.75529 1.14347 0.441259 2.71744 0.162526 4.94405C-0.0365684 6.67158 0.00325295 8.43751 0.00325295 10.2034C0.00325295 10.9328 0.0430743 11.6622 0.242169 12.3916L7.48921 11.5855C6.97156 11.1248 6.69283 10.4722 6.73265 9.62759Z" transform="translate(61.5752 99.8744)" fill="white"></path><path d="M15.3303 7.33243C15.3303 5.98879 15.2108 4.68354 15.0516 3.3399C14.8923 2.11143 14.2552 1.1133 13.0208 0.652625C12.2642 0.345507 11.4679 0.115169 10.6715 0.115169C7.40632 0.0383897 4.18099 0.03839 0.91584 2.9289e-07C4.84172e-06 2.9289e-07 -2.43035e-06 9.15282e-08 -2.43035e-06 0.921353C-2.43035e-06 4.18448 -2.43035e-06 7.40921 -2.43035e-06 10.6723L6.88868 11.7472C6.88868 9.94293 6.88868 8.10022 6.88868 6.29591C6.88868 5.98879 6.80903 5.6049 7.32667 5.56651C8.0036 5.48973 8.48143 5.72006 8.56106 6.18074C8.60088 6.48786 8.64071 6.83337 8.64071 7.17887C8.64071 8.79124 8.64071 10.4036 8.64071 12.016L15.4099 13.0525C15.3701 11.1714 15.3303 9.25191 15.3303 7.33243Z" transform="translate(79.417 100.173)" fill="white"></path><path d="M8.60088 5.60489C8.60088 5.87362 8.60088 6.14235 8.56106 6.41108C8.48142 7.0637 7.68506 7.52438 7.12759 7.17887C6.96832 7.10209 6.88868 6.75658 6.88868 6.52625C6.88868 5.60489 6.88868 4.72193 6.88868 3.80058C6.88868 2.87923 6.88868 1.99626 6.88868 1.07491L-4.86071e-06 -5.8578e-07C-4.86071e-06 1.30525 -4.86071e-06 2.6105 -4.86071e-06 3.87736C-4.86071e-06 8.48412 -4.86071e-06 13.0909 -4.86071e-06 17.6976C-4.86071e-06 18.2735 0.119452 18.5038 0.796373 18.5038C2.58822 18.4654 4.38008 18.4654 6.21175 18.5038C6.76921 18.5038 6.9285 18.3503 6.9285 17.8128C6.88868 16.4308 6.9285 15.0488 6.9285 13.6667C6.9285 12.7838 6.92849 12.7838 7.88415 12.7454C8.91944 12.7454 9.99455 12.7454 11.0298 12.6302C12.6624 12.4766 14.1755 12.016 14.8126 10.4036C15.171 9.44386 15.3701 8.36895 15.4099 7.33243C15.4497 5.68167 15.4497 3.99253 15.4497 2.34177L8.68053 1.30525C8.60089 2.72567 8.60088 4.18447 8.60088 5.60489Z" transform="translate(79.377 112.803)" fill="white"></path><path d="M6.13212 2.9289e-07C4.38008 0.03839 2.62805 0.03839 0.876014 2.9289e-07C0.159273 2.9289e-07 -1.21518e-06 0.230338 -1.21518e-06 0.882963C0.0398177 5.45133 -1.21518e-06 10.0197 -1.21518e-06 14.5881C-1.21518e-06 14.7416 -1.21518e-06 14.8952 -1.21518e-06 15.0488L6.88867 14.281C6.88867 9.78937 6.88867 5.25939 6.88867 0.767794C6.88867 0.191949 6.68958 2.9289e-07 6.13212 2.9289e-07Z" transform="translate(34.1426 100.173)" fill="white"></path><path d="M0.477829 1.84271C1.27421 3.41668 2.62805 4.29965 4.18098 4.99066C5.13664 5.41295 6.13212 5.83523 7.08777 6.29591C7.68505 6.60303 8.28233 7.02531 8.32215 7.75472C8.36197 9.13675 8.36197 10.5188 8.32215 11.9008C8.32215 12.515 7.76469 12.8989 7.24704 12.5918C6.96831 12.4383 6.68958 12.016 6.64976 11.7089C6.57012 10.5188 6.60994 9.2903 6.60994 8.10022C6.60994 7.60116 6.41084 7.4476 5.93301 7.4476C4.2208 7.4476 2.46877 7.48599 0.756554 7.4476C0.19909 7.4476 -2.43035e-06 7.63955 -2.43035e-06 8.177C0.0398165 9.75098 2.42679e-06 11.325 0.0796402 12.8989C0.199097 15.1639 1.51311 16.9299 3.74297 17.6593C5.495 18.2351 7.32668 18.3119 9.15835 18.1199C12.8615 17.736 15.171 16.0085 15.2108 11.7856C15.2108 10.442 15.171 9.05997 15.2108 7.71633C15.2905 5.06744 13.9764 3.18634 11.5873 2.03465C10.4724 1.4972 9.35745 1.03652 8.24252 0.499066C7.92396 0.345507 7.68505 0.191949 7.44614 5.8578e-07L0.199092 0.806183C0.238911 1.19008 0.318554 1.53559 0.477829 1.84271Z" transform="translate(61.6973 113.302)" fill="white"></path><path d="M2.78732 4.41481C2.38913 5.83523 2.1104 7.25565 1.79185 8.67607C1.4733 10.0965 1.15475 11.4785 0.836197 12.8989C0.557465 14.1274 0.27873 15.3559 -2.43035e-06 16.5843C0.119454 16.6611 0.199095 16.6995 0.238914 16.6995C2.26968 16.6995 4.30045 16.7379 6.33121 16.6995C6.49049 16.6995 6.7294 16.4692 6.76922 16.3156C6.88867 15.8165 6.96832 15.2791 7.04795 14.78C7.40632 12.5534 7.76469 10.2884 8.16288 8.06183C8.2027 7.71632 8.36197 7.40921 8.48143 7.0637C8.56107 7.0637 8.64071 7.02531 8.72035 7.02531C8.79998 7.17887 8.91944 7.33243 8.95926 7.48599C9.15835 8.63768 9.35745 9.75098 9.51673 10.9027C9.79546 12.707 10.0742 14.5113 10.3927 16.354C10.4326 16.5076 10.6715 16.6995 10.8308 16.6995C12.8217 16.7379 14.8126 16.7379 16.7638 16.6995C16.8832 16.6995 17.162 16.3924 17.1221 16.2388C16.8434 14.972 16.5647 13.6667 16.2461 12.3999C15.9276 11.0178 15.5692 9.63581 15.2507 8.25378C14.8923 6.75658 14.5339 5.29778 14.2154 3.80058C14.0561 3.03278 13.8172 2.2266 13.8968 1.4972C13.9366 0.998131 14.0561 0.499066 14.1755 2.9289e-07L3.1457 1.22847C3.18552 2.30338 3.10587 3.3399 2.78732 4.41481Z" transform="translate(43.1816 114.569)" fill="white"></path><path d="M-1.21518e-06 14.1658C-1.21518e-06 14.7416 0.119455 15.0104 0.796377 14.972C2.58823 14.9336 4.38008 14.9336 6.21175 14.972C6.7294 14.972 6.92849 14.8184 6.92849 14.281C6.92849 9.52065 6.92849 4.76032 6.92849 -2.9289e-07L0.0398201 0.767794C1.2134e-06 5.221 -1.21518e-06 9.6742 -1.21518e-06 14.1658Z" transform="translate(34.1426 116.335)" fill="white"></path><path d="M11.6081 13.5817C10.4932 13.0443 9.33843 12.5836 8.2235 12.0461C7.22803 11.5855 6.67056 10.8177 6.7502 9.66598C6.79002 8.66784 6.7502 7.7081 6.7502 6.70997C6.7502 5.98057 7.06875 5.59667 7.62622 5.59667C8.38277 5.59667 8.46241 6.09574 8.46241 6.63319C8.46241 7.78488 8.50223 8.97496 8.46241 10.1267C8.46241 10.5873 8.66151 10.8177 9.13933 10.7793C10.0154 10.7793 10.9312 10.7793 11.8072 10.7793C12.6832 10.7793 13.5991 10.7793 14.4751 10.7793C14.9927 10.7793 15.2316 10.6641 15.1918 10.1267C15.1122 8.36073 15.1122 6.5948 14.9131 4.82888C14.714 2.83261 13.5592 1.41219 11.6081 0.68279C9.09951 -0.200172 6.51129 -0.200173 3.96288 0.529231C1.73302 1.14347 0.418996 2.71744 0.180083 4.90566C-0.0190118 6.70997 -0.0190094 8.55268 0.0208095 10.357C0.0606284 11.3551 0.259723 12.43 0.618093 13.3514C1.2552 14.9638 2.72849 15.8083 4.28143 16.5377C4.40089 16.5761 4.52034 16.6529 4.6398 16.6913L14.2362 15.6164C13.6389 14.7718 12.6832 14.0808 11.6081 13.5817Z" transform="translate(16.3623 99.8818)" fill="white"></path><path d="M7.21209 2.26499C7.76955 2.57211 8.32702 2.95601 8.32702 3.64702C8.36684 5.06744 8.36684 6.44947 8.32702 7.86989C8.32702 8.36895 8.00847 8.63768 7.49083 8.59929C6.89354 8.5609 6.65463 8.21539 6.65463 7.67794C6.65463 6.48786 6.61481 5.25939 6.65463 4.06931C6.65463 3.57024 6.49535 3.37829 5.93789 3.37829C4.22567 3.41668 2.51346 3.41668 0.801247 3.37829C0.164145 3.37829 -0.0349499 3.60863 0.00486898 4.18448C0.0446879 5.75845 0.00486776 7.29404 0.0845056 8.86802C0.203962 10.9027 1.15962 12.5534 3.19038 13.398C5.69897 14.4729 8.32702 14.3961 10.9551 13.7435C13.3442 13.1677 14.7777 11.5553 15.0166 9.29031C15.2555 6.91015 15.2555 4.49159 15.0166 2.14982C14.937 1.30525 14.6184 0.614235 14.1804 -5.8578e-07L4.58404 1.07491C5.46006 1.45881 6.33607 1.84271 7.21209 2.26499Z" transform="translate(16.457 117.41)" fill="white"></path><path d="M10.9104 6.48786C10.9104 5.64328 10.9104 5.6049 11.8262 5.6049C12.543 5.6049 13.2995 5.56651 14.0163 5.6049C14.5737 5.64328 14.8126 5.45134 14.7728 4.87549C14.733 3.49346 14.733 2.11143 14.7728 0.729404C14.7728 0.191948 14.5737 1.46445e-07 14.0163 1.46445e-07C12.4633 0.0383898 10.8706 1.46445e-07 9.31763 1.46445e-07C6.49048 1.46445e-07 3.66335 1.46445e-07 0.836202 1.46445e-07C0.238918 1.46445e-07 2.43035e-06 0.191949 2.43035e-06 0.806184C0.0398214 2.14982 0.0398214 3.53185 2.43035e-06 4.87549C2.43035e-06 5.37456 0.199092 5.60489 0.716738 5.5665C1.55294 5.52811 2.34932 5.60489 3.18552 5.5665C3.82262 5.52811 4.06153 5.75845 4.06153 6.41108C4.06153 8.21539 4.06153 10.0197 4.06153 11.824L10.9104 13.0525C10.9104 10.8643 10.9104 8.67607 10.9104 6.48786Z" transform="translate(132.058 100.135)" fill="white"></path><path d="M15.3701 6.94853C15.3701 5.75845 15.2507 4.60676 15.0914 3.41668C14.8923 1.99626 14.0959 0.959742 12.7022 0.499066C12.0651 0.268728 11.3882 0.153559 10.7113 0.115169C7.3665 0.0383897 4.02171 0.03839 0.676919 2.9289e-07C0.0796354 2.9289e-07 4.86071e-06 0.268728 4.86071e-06 0.729404C4.86071e-06 4.87549 4.86071e-06 8.98319 4.86071e-06 13.1293L6.88867 11.9008C6.88867 11.4785 6.88867 11.0946 6.88867 10.6723C6.88867 9.21352 6.88867 7.71633 6.88867 6.25752C6.88867 5.9504 6.76922 5.5665 7.32668 5.52811C8.00361 5.45133 8.48144 5.68167 8.56107 6.14235C8.60089 6.29591 8.60088 6.44947 8.60088 6.60303C8.60088 8.25378 8.60088 9.90454 8.60088 11.5553L13.6977 10.6339L15.3701 10.9411C15.4099 9.63581 15.4099 8.29217 15.3701 6.94853Z" transform="translate(115.174 100.173)" fill="white"></path><path d="M11.8439 0.696568C9.25569 -0.224784 6.58781 -0.186395 3.99958 0.543009C1.45117 1.27241 0.0575114 3.1919 0.0176924 5.76401C-0.0221265 8.37451 0.0176924 11.0234 0.0176924 13.6339L6.86655 14.7088C6.86655 12.0599 6.86655 9.44942 6.86655 6.80053C6.86655 6.72375 6.86655 6.60858 6.86655 6.5318C6.90637 5.99435 7.14529 5.64884 7.74257 5.64884C8.30004 5.64884 8.53895 5.99435 8.53895 6.49341C8.53895 7.49154 8.53895 8.45129 8.53895 9.44942C8.53895 11.2537 8.53895 13.0964 8.53895 14.9008C8.53895 14.9008 8.53895 14.9008 8.53895 14.9391H8.57876L15.4674 13.7107C15.4674 10.9082 15.4276 8.10578 15.348 5.34172C15.3082 3.11512 14.0738 1.46436 11.8439 0.696568Z" transform="translate(97.2773 99.8606)" fill="white"></path><path d="M8.60088 0.882964C8.60088 1.99626 8.60088 3.10956 8.60088 4.22287C8.60088 5.02905 8.32214 5.18261 7.6054 5.25939C7.08776 5.29778 6.88867 5.14422 6.88867 4.60676C6.88867 4.22287 6.88867 3.83897 6.88867 3.45507C6.88867 2.72567 6.88867 1.95787 6.88867 1.22847L4.86071e-06 2.45694C4.86071e-06 7.60116 4.86071e-06 12.707 4.86071e-06 17.8512C4.86071e-06 18.3887 0.199094 18.5422 0.71674 18.5422C2.50859 18.5038 4.26062 18.5038 6.05247 18.5422C6.68957 18.5422 6.92849 18.3887 6.88867 17.736C6.84885 15.471 6.88867 13.2061 6.88867 10.9411C6.88867 10.6723 6.88867 10.2884 7.32668 10.3652C7.56559 10.4036 7.92397 10.5956 7.96378 10.7875C8.2027 11.5169 8.36197 12.2463 8.56107 13.0141C8.95926 14.6265 9.35745 16.2388 9.75563 17.8512C9.87509 18.3503 10.1538 18.5806 10.7511 18.5806C12.2642 18.5422 13.7375 18.5806 15.2506 18.5422C15.4896 18.5422 15.7285 18.5038 16.1267 18.5038C15.7683 17.237 15.4497 16.0853 15.171 14.972C14.6533 13.0909 14.1357 11.2098 13.6579 9.3287C13.6181 9.09836 13.6579 8.75285 13.8172 8.5609C14.9719 7.37082 15.4896 5.98879 15.4497 4.37642C15.4497 3.03279 15.4497 1.65076 15.4497 0.307118L13.7773 -5.8578e-07L8.60088 0.882964Z" transform="translate(115.174 112.803)" fill="white"></path><path d="M8.58707 1.38203C8.58707 3.99253 8.58707 6.60302 8.58707 9.17513C8.58707 9.40547 8.66671 9.71259 8.54725 9.90454C8.38798 10.1733 8.10925 10.5188 7.79069 10.5956C7.35269 10.7107 7.03413 10.4036 6.91467 9.98132C6.87486 9.82776 6.87485 9.63581 6.87485 9.44386C6.87485 6.64142 6.87485 3.87736 6.87485 1.07491L0.026009 2.9289e-07C0.026009 0.422287 0.026009 0.844572 0.026009 1.30525C0.026009 4.4532 -0.0536385 7.60116 0.0658182 10.7107C0.145456 13.0909 1.53912 14.9336 3.88843 15.6246C6.23775 16.354 8.6667 16.354 11.0558 15.7782C12.8875 15.3559 14.3608 14.3577 14.9979 12.5534C15.3563 11.5553 15.5156 10.442 15.5156 9.40547C15.5156 6.29591 15.5156 3.18634 15.5156 0.0767799L8.58707 1.38203Z" transform="translate(97.2295 115.337)" fill="white"></path><path d="M6.84885 8.29217C6.84885 5.9504 6.84885 3.57024 6.84885 1.22847L-4.86071e-06 5.8578e-07C-4.86071e-06 1.8811 -4.86071e-06 3.7238 -4.86071e-06 5.60489C-4.86071e-06 9.29031 -4.86071e-06 12.9373 -4.86071e-06 16.6227C-4.86071e-06 17.2754 0.199095 17.4289 0.876016 17.4289C2.62805 17.3905 4.38009 17.3905 6.13212 17.4289C6.7294 17.4289 6.88868 17.237 6.88868 16.6611C6.84886 13.8587 6.84885 11.0946 6.84885 8.29217Z" transform="translate(136.118 113.878)" fill="white"></path><path d="M20.6085 18.2V12.3333H9.2085V43H20.6085V37.1333H16.2418V30.4667H20.5085V24.6667H16.2418V18.2H20.6085ZM40.6267 43L37.1934 27.4333L40.4934 12.3333H33.5934L32.0934 22.1333H31.6601L30.1934 12.3333H23.2934L26.5934 27.4333L23.1601 43H30.0601L31.6601 32.7667H32.0934L33.7267 43H40.6267ZM57.9944 31.5333H50.9611V36.3667C50.9611 37.2667 50.5611 37.5 50.0944 37.5C49.5944 37.5 49.2278 37.2667 49.2278 36.3667V19.0333C49.2278 18.1667 49.5944 17.9 50.0944 17.9C50.5611 17.9 50.9611 18.1667 50.9611 19.0333V23.8333H57.9944V19C57.9944 13.8 54.8611 12.0333 50.0944 12.0333C45.2944 12.0333 42.1944 13.8 42.1944 19V36.4C42.1944 41.6333 45.2944 43.3667 50.0944 43.3667C54.8611 43.3667 57.9944 41.6333 57.9944 36.4V31.5333ZM69.4267 12.3333V25.1333H67.6934V12.3333H60.6601V43H67.6934V31H69.4267V43H76.4601V12.3333H69.4267ZM89.759 43H96.5257L93.759 12.3333H81.659L78.859 43H85.659L85.9924 38.2333H89.4257L89.759 43ZM86.4257 32.3333L87.4257 18.7H87.9924L88.9924 32.3333H86.4257ZM98.9194 43H105.386V28.4667L105.186 24H105.586L108.453 43H117.286V12.3333H110.819V26.8667L111.019 31.3333H110.586L107.719 12.3333H98.9194V43ZM135.763 23.2667V19C135.763 13.8 132.63 12.0333 127.863 12.0333C123.063 12.0333 119.963 13.8 119.963 19V36.3333C119.963 41.5333 123.063 43.3 127.863 43.3C132.63 43.3 135.763 41.5333 135.763 36.3333V24.9667H127.997V30.6H129.13V36.3C129.13 37.1667 128.73 37.4333 128.03 37.4333C127.263 37.4333 126.963 37.1667 126.963 36.3V19.0333C126.963 18.1667 127.33 17.9 127.863 17.9C128.363 17.9 128.763 18.1667 128.763 19.0333V23.2667H135.763ZM149.829 18.2V12.3333H138.429V43H149.829V37.1333H145.462V30.4667H149.729V24.6667H145.462V18.2H149.829Z" transform="translate(0.554688 123)" fill="#F2C94C"></path></svg>