<svg xmlns="http://www.w3.org/2000/svg" xmlns:xlink="http://www.w3.org/1999/xlink" id="Capa_1" x="0px" y="0px" viewBox="0 0 236.9 75" style="enable-background:new 0 0 236.9 75;" xml:space="preserve"><style type="text/css">	.st0{fill:#F2994A;}</style><path class="st0" d="M32,0.5L6.2,39.4L60.5,7C52.5,1.5,42.3-1.1,32,0.5z"></path><path class="st0" d="M26.1,1.8C8.9,7.3-1.8,23.7,0.3,40.9L26.1,1.8z"></path><path class="st0" d="M51.3,70.7C67.4,65,77.5,49.4,75.9,33.1L51.3,70.7z"></path><path class="st0" d="M63.9,9.7L12,40.7l62.5-15C72.4,19.4,68.7,13.9,63.9,9.7z"></path><path class="st0" d="M13,63.9L65.3,32L1.7,47.2C3.8,53.9,7.8,59.5,13,63.9z"></path><path class="st0" d="M45.2,72.3l25.5-38.8l-54.3,33C24.6,71.9,34.9,74.3,45.2,72.3z"></path><path d="M181.5,28.7c0-2.6,0-5.2,0-7.8C181.5,23.5,181.5,26.1,181.5,28.7z"></path><path d="M134.3,12.1c0.2-1,0.5-2.1,0.7-3.1c0.2-1.1,0.4-2.1,0.7-3.2c0.1-0.5-0.1-0.6-0.6-0.6c-1.8,0-3.7,0-5.5,0 c-0.2,0-0.6,0.3-0.6,0.5c-0.2,0.5-0.2,1-0.2,1.5c-0.4,2.2-0.7,4.5-1.1,6.7c0,0.2-0.2,0.5-0.3,0.7c-0.1,0-0.2,0-0.3,0 c-0.1-0.7-0.2-1.4-0.3-2c-0.4-2.2-0.7-4.5-1-6.7c0-0.4-0.2-0.5-0.6-0.5c-1.9,0-3.8,0-5.7,0c-0.4,0-0.6,0.2-0.5,0.5 c0.2,0.9,0.4,1.8,0.6,2.8c0.3,1.4,0.6,2.8,1,4.2c0.3,1.5,0.6,2.9,1,4.3c0.2,0.7,0.3,1.3,0.4,1.9l11-1.2c0.1-0.5,0.3-1,0.4-1.5 C133.7,14.8,134,13.5,134.3,12.1z"></path><path d="M143.9,14.5c0-0.9,0-1.8,0-2.7c0-0.9,0.3-1.3,0.9-1.3s0.8,0.3,0.8,1.3s0,2.1,0,3.1c0,0.5,0.2,0.7,0.7,0.7c0.9,0,1.7,0,2.6,0 c0.9,0,1.8,0,2.7,0c0.5,0,0.7-0.2,0.7-0.7c-0.1-1.8-0.1-3.5-0.2-5.3c-0.2-2-1.4-3.5-3.3-4.1c-2.5-0.9-5.1-0.9-7.6-0.2 c-2.2,0.6-3.5,2.2-3.8,4.4c-0.2,1.7-0.2,3.5-0.2,5.3c0,0.7,0,1.5,0.2,2.2l7.2-0.8C144.2,16,143.9,15.3,143.9,14.5z"></path><path d="M170.4,12.5c0-1.3-0.1-2.6-0.3-4c-0.2-1.2-0.8-2.2-2-2.7c-0.8-0.3-1.6-0.5-2.3-0.5c-3.3-0.1-6.5-0.1-9.8-0.1 c-0.9,0-0.9,0-0.9,0.9c0,3.3,0,6.5,0,9.8l6.9,1.1c0-1.8,0-3.6,0-5.5c0-0.3-0.1-0.7,0.4-0.7c0.7-0.1,1.2,0.2,1.2,0.6 c0,0.3,0.1,0.7,0.1,1c0,1.6,0,3.2,0,4.8l6.8,1C170.4,16.3,170.4,14.4,170.4,12.5z"></path><path d="M163.6,23.4c0,0.3,0,0.5,0,0.8c-0.1,0.7-0.9,1.1-1.4,0.8c-0.2-0.1-0.2-0.4-0.2-0.7c0-0.9,0-1.8,0-2.7s0-1.8,0-2.7l-6.9-1.1 c0,1.3,0,2.6,0,3.9c0,4.6,0,9.2,0,13.8c0,0.6,0.1,0.8,0.8,0.8c1.8,0,3.6,0,5.4,0c0.6,0,0.7-0.2,0.7-0.7c0-1.4,0-2.8,0-4.1 c0-0.9,0-0.9,1-0.9c1,0,2.1,0,3.1-0.1c1.6-0.2,3.1-0.6,3.8-2.2c0.4-1,0.6-2,0.6-3.1c0-1.7,0-3.3,0-5l-6.8-1 C163.6,20.5,163.6,22,163.6,23.4z"></path><path d="M115.9,5.2c-1.8,0-3.5,0-5.3,0c-0.7,0-0.9,0.2-0.9,0.9c0,4.6,0,9.1,0,13.7c0,0.2,0,0.3,0,0.5l6.9-0.8c0-4.5,0-9,0-13.5 C116.7,5.4,116.5,5.2,115.9,5.2z"></path><path d="M137.8,20.1c0.8,1.6,2.2,2.5,3.7,3.1c1,0.4,2,0.8,2.9,1.3c0.6,0.3,1.2,0.7,1.2,1.5c0,1.4,0,2.8,0,4.1c0,0.6-0.6,1-1.1,0.7 c-0.3-0.2-0.6-0.6-0.6-0.9c-0.1-1.2,0-2.4,0-3.6c0-0.5-0.2-0.7-0.7-0.7c-1.7,0-3.5,0-5.2,0c-0.6,0-0.8,0.2-0.8,0.7 c0,1.6,0,3.1,0.1,4.7c0.1,2.3,1.4,4,3.7,4.8c1.8,0.6,3.6,0.7,5.4,0.5c3.7-0.4,6-2.1,6.1-6.3c0-1.3,0-2.7,0-4.1 c0.1-2.6-1.2-4.5-3.6-5.7c-1.1-0.5-2.2-1-3.3-1.5c-0.3-0.2-0.6-0.3-0.8-0.5l-7.2,0.8C137.6,19.5,137.7,19.8,137.8,20.1z"></path><path d="M121.6,24c-0.4,1.4-0.7,2.8-1,4.3c-0.3,1.4-0.6,2.8-1,4.2c-0.3,1.2-0.6,2.5-0.8,3.7c0.1,0.1,0.2,0.1,0.2,0.1 c2,0,4.1,0,6.1,0c0.2,0,0.4-0.2,0.4-0.4c0.1-0.5,0.2-1,0.3-1.5c0.4-2.2,0.7-4.5,1.1-6.7c0-0.3,0.2-0.7,0.3-1c0.1,0,0.2,0,0.2,0 c0.1,0.2,0.2,0.3,0.2,0.5c0.2,1.2,0.4,2.3,0.6,3.4c0.3,1.8,0.6,3.6,0.9,5.5c0,0.2,0.3,0.3,0.4,0.3c2,0,4,0,5.9,0 c0.1,0,0.4-0.3,0.4-0.5c-0.3-1.3-0.6-2.6-0.9-3.8c-0.3-1.4-0.7-2.8-1-4.1c-0.4-1.5-0.7-3-1-4.5c-0.2-0.8-0.4-1.6-0.3-2.3 c0-0.5,0.2-1,0.3-1.5l-11,1.2C122,21.9,121.9,22.9,121.6,24z"></path><path d="M109.8,35.5c0,0.6,0.1,0.8,0.8,0.8c1.8,0,3.6,0,5.4,0c0.5,0,0.7-0.2,0.7-0.7c0-4.8,0-9.5,0-14.3l-6.9,0.8 C109.8,26.6,109.8,31,109.8,35.5z"></path><path d="M103.6,18.5c-1.1-0.5-2.3-1-3.4-1.5c-1-0.5-1.6-1.2-1.5-2.4c0-1,0-2,0-3c0-0.7,0.3-1.1,0.9-1.1c0.8,0,0.8,0.5,0.8,1 c0,1.2,0,2.3,0,3.5c0,0.5,0.2,0.7,0.7,0.7c0.9,0,1.8,0,2.7,0s1.8,0,2.7,0c0.5,0,0.8-0.1,0.7-0.7c-0.1-1.8-0.1-3.5-0.3-5.3 c-0.2-2-1.4-3.4-3.3-4.1c-2.5-0.9-5.1-0.9-7.6-0.2c-2.2,0.6-3.5,2.2-3.8,4.4C92,11.6,92,13.4,92,15.2c0,1,0.2,2.1,0.6,3 c0.6,1.6,2.1,2.5,3.7,3.2c0.1,0,0.2,0.1,0.4,0.2l9.6-1.1C105.6,19.7,104.7,19,103.6,18.5z"></path><path d="M99.3,24.7c0.6,0.3,1.1,0.7,1.1,1.4c0,1.4,0,2.8,0,4.2c0,0.5-0.3,0.8-0.8,0.7c-0.6,0-0.8-0.4-0.8-0.9c0-1.2,0-2.4,0-3.6 c0-0.5-0.2-0.7-0.7-0.7c-1.7,0-3.4,0-5.1,0c-0.6,0-0.8,0.2-0.8,0.8c0,1.6,0,3.1,0.1,4.7c0.1,2,1.1,3.7,3.1,4.5 c2.5,1.1,5.1,1,7.8,0.3c2.4-0.6,3.8-2.2,4.1-4.5c0.2-2.4,0.2-4.8,0-7.1c-0.1-0.8-0.4-1.5-0.8-2.1l-9.6,1.1 C97.6,23.9,98.4,24.3,99.3,24.7z"></path><path d="M218.6,11.6c0-0.8,0-0.9,0.9-0.9c0.7,0,1.5,0,2.2,0c0.6,0,0.8-0.2,0.8-0.7c0-1.4,0-2.8,0-4.1c0-0.5-0.2-0.7-0.8-0.7 c-1.6,0-3.1,0-4.7,0c-2.8,0-5.7,0-8.5,0c-0.6,0-0.8,0.2-0.8,0.8c0,1.3,0,2.7,0,4.1c0,0.5,0.2,0.7,0.7,0.7c0.8,0,1.6,0,2.5,0 c0.6,0,0.9,0.2,0.9,0.8c0,1.8,0,3.6,0,5.4l6.8,1.2C218.6,16,218.6,13.8,218.6,11.6z"></path><path d="M206.2,12.1c0-1.2-0.1-2.3-0.3-3.5c-0.2-1.4-1-2.5-2.4-2.9c-0.6-0.2-1.3-0.3-2-0.4c-3.3-0.1-6.7-0.1-10-0.1 c-0.6,0-0.7,0.3-0.7,0.7c0,4.1,0,8.3,0,12.4l6.9-1.2c0-0.4,0-0.8,0-1.2c0-1.5,0-3,0-4.4c0-0.3-0.1-0.7,0.4-0.7 c0.7-0.1,1.2,0.2,1.2,0.6c0,0.2,0,0.3,0,0.5c0,1.7,0,3.3,0,5l5.1-0.9l1.7,0.3C206.2,14.8,206.2,13.5,206.2,12.1z"></path><path d="M184.8,5.6c-2.6-0.9-5.3-0.9-7.8-0.2c-2.5,0.7-3.9,2.6-4,5.2c0,2.6,0,5.3,0,7.9l6.8,1.1c0-2.6,0-5.3,0-7.9 c0-0.1,0-0.2,0-0.3c0-0.5,0.3-0.9,0.9-0.9c0.6,0,0.8,0.3,0.8,0.8c0,1,0,2,0,3c0,1.8,0,3.6,0,5.5c0,0,0,0,0,0h0l6.9-1.2 c0-2.8,0-5.6-0.1-8.4C188.2,8,187,6.3,184.8,5.6z"></path><path d="M199.4,18.7c0,1.1,0,2.2,0,3.3c0,0.8-0.3,1-1,1c-0.5,0-0.7-0.1-0.7-0.7c0-0.4,0-0.8,0-1.2c0-0.7,0-1.5,0-2.2l-6.9,1.2 c0,5.1,0,10.3,0,15.4c0,0.5,0.2,0.7,0.7,0.7c1.8,0,3.5,0,5.3,0c0.6,0,0.9-0.2,0.8-0.8c0-2.3,0-4.5,0-6.8c0-0.3,0-0.7,0.4-0.6 c0.2,0,0.6,0.2,0.6,0.4c0.2,0.7,0.4,1.5,0.6,2.2c0.4,1.6,0.8,3.2,1.2,4.8c0.1,0.5,0.4,0.7,1,0.7c1.5,0,3,0,4.5,0c0.2,0,0.5,0,0.9,0 c-0.4-1.3-0.7-2.4-1-3.5c-0.5-1.9-1-3.8-1.5-5.6c0-0.2,0-0.6,0.2-0.8c1.2-1.2,1.7-2.6,1.6-4.2c0-1.3,0-2.7,0-4.1l-1.7-0.3 L199.4,18.7z"></path><path d="M181.5,21.7c0,2.6,0,5.2,0,7.8c0,0.2,0.1,0.5,0,0.7c-0.2,0.3-0.4,0.6-0.8,0.7c-0.4,0.1-0.8-0.2-0.9-0.6c0-0.2,0-0.3,0-0.5 c0-2.8,0-5.6,0-8.4l-6.8-1.1c0,0.4,0,0.8,0,1.3c0,3.1-0.1,6.3,0,9.4c0.1,2.4,1.5,4.2,3.8,4.9c2.3,0.7,4.8,0.7,7.2,0.2 c1.8-0.4,3.3-1.4,3.9-3.2c0.4-1,0.5-2.1,0.5-3.1c0-3.1,0-6.2,0-9.3L181.5,21.7z"></path><path d="M218.6,27.2c0-2.3,0-4.7,0-7.1l-6.8-1.2c0,1.9,0,3.7,0,5.6c0,3.7,0,7.3,0,11c0,0.7,0.2,0.8,0.9,0.8c1.8,0,3.5,0,5.3,0 c0.6,0,0.8-0.2,0.8-0.8C218.6,32.7,218.6,30,218.6,27.2z"></path><path class="st0" d="M108.5,59.5h-7v4.8c0,0.9-0.4,1.1-0.9,1.1c-0.5,0-0.9-0.2-0.9-1.1V47c0-0.9,0.4-1.1,0.9-1.1 c0.5,0,0.9,0.3,0.9,1.1v4.8h7V47c0-5.2-3.1-7-7.9-7c-4.8,0-7.9,1.8-7.9,7v17.4c0,5.2,3.1,7,7.9,7c4.8,0,7.9-1.7,7.9-7V59.5z  M119.2,40c-4.8,0-7.9,1.8-7.9,7v17.3c0,5.2,3.1,7,7.9,7c4.8,0,7.9-1.8,7.9-7V47C127.1,41.8,123.9,40,119.2,40z M120,47v17.3 c0,0.9-0.4,1.1-0.9,1.1c-0.5,0-0.9-0.3-0.9-1.1V47c0-0.9,0.4-1.1,0.9-1.1C119.6,45.9,120,46.2,120,47z M139.7,71h6.8l-2.8-30.7 h-12.1L128.8,71h6.8l0.3-4.8h3.4L139.7,71z M136.4,60.3l1-13.6h0.6l1,13.6H136.4z M164,59.5h-7v4.8c0,0.9-0.4,1.1-0.9,1.1 c-0.5,0-0.9-0.2-0.9-1.1V47c0-0.9,0.4-1.1,0.9-1.1c0.5,0,0.9,0.3,0.9,1.1v4.8h7V47c0-5.2-3.1-7-7.9-7c-4.8,0-7.9,1.8-7.9,7v17.4 c0,5.2,3.1,7,7.9,7c4.8,0,7.9-1.7,7.9-7V59.5z M175.4,40.3v12.8h-1.7V40.3h-7V71h7V59h1.7v12h7V40.3H175.4z M185.1,71h7V40.3h-7V71z  M194.9,71h6.5V56.5l-0.2-4.5h0.4l2.9,19h8.8V40.3h-6.5v14.5l0.2,4.5h-0.4l-2.9-19h-8.8V71z M231.7,51.3V47c0-5.2-3.1-7-7.9-7 c-4.8,0-7.9,1.8-7.9,7v17.3c0,5.2,3.1,7,7.9,7c4.8,0,7.9-1.8,7.9-7V53h-7.8v5.6h1.1v5.7c0,0.9-0.4,1.1-1.1,1.1 c-0.8,0-1.1-0.3-1.1-1.1V47c0-0.9,0.4-1.1,0.9-1.1c0.5,0,0.9,0.3,0.9,1.1v4.2H231.7z"></path></svg>