<svg xmlns="http://www.w3.org/2000/svg" width="77" height="73" viewBox="0 0 77 73" fill="none"><path d="M25.8217 0.46436L0 39.3802L54.2933 7.02919C46.3435 1.46979 36.1134 -1.13249 25.8217 0.46436Z" transform="translate(6.17676)" fill="#F2C94C"></path><path d="M26.0821 -5.64028e-08C8.88823 5.44112 -1.83486 21.8828 0.260453 39.0342L26.0821 -5.64028e-08Z" transform="translate(0 1.82471)" fill="#F2C94C"></path><path d="M-1.8807e-06 37.6739C16.1463 31.937 26.2531 16.3825 24.6508 9.02446e-07L-1.8807e-06 37.6739Z" transform="translate(51.2881 33.0522)" fill="#F2C94C"></path><path d="M51.9515 0L-2.35088e-07 30.9316L62.4897 15.9685C60.3944 9.64026 56.6968 4.19913 51.9515 0Z" transform="translate(11.9688 9.74951)" fill="#F2C94C"></path><path d="M11.2161 31.8187L63.599 4.51223e-07L-2.9386e-08 15.1997C2.09532 21.8828 6.03944 27.5013 11.2161 31.8187Z" transform="translate(1.73926 32.0464)" fill="#F2C94C"></path><path d="M28.8414 38.7976L54.2933 4.51223e-07L2.35088e-07 33.0016C8.19638 38.3836 18.4881 40.7493 28.8414 38.7976Z" transform="translate(16.4062 33.5249)" fill="#F2C94C"></path></svg>