<svg xmlns="http://www.w3.org/2000/svg" width="60" height="59" viewBox="0 0 60 59" fill="none"><path d="M20.3572 0.375304L0 31.8278L42.8036 5.68112C36.5361 1.18791 28.471 -0.9153 20.3572 0.375304Z" transform="translate(4.87012)" fill="black"></path><path d="M20.5626 -4.55858e-08C7.00727 4.39761 -1.44656 17.6861 0.205335 31.5481L20.5626 -4.55858e-08Z" transform="translate(0 1.47473)" fill="black"></path><path d="M-1.4827e-06 30.4487C12.7293 25.8121 20.6973 13.2406 19.4341 7.29372e-07L-1.4827e-06 30.4487Z" transform="translate(40.4346 26.7133)" fill="black"></path><path d="M40.9574 0L-1.85338e-07 24.9995L49.2655 12.906C47.6136 7.79143 44.6984 3.39381 40.9574 0Z" transform="translate(9.43604 7.87994)" fill="black"></path><path d="M8.84252 25.7165L50.14 3.64686e-07L-2.31673e-08 12.2846C1.6519 17.6861 4.76136 22.2271 8.84252 25.7165Z" transform="translate(1.37109 25.9005)" fill="black"></path><path d="M22.7379 31.3569L42.8036 3.64686e-07L1.85338e-07 26.6725C6.46184 31.0223 14.5756 32.9343 22.7379 31.3569Z" transform="translate(12.9346 27.0955)" fill="black"></path></svg>