<svg xmlns="http://www.w3.org/2000/svg" xmlns:xlink="http://www.w3.org/1999/xlink" id="Capa_1" x="0px" y="0px" viewBox="0 0 161 170" style="enable-background:new 0 0 161 170;" xml:space="preserve"><style type="text/css">	.st0{fill:#F2994A;}	.st1{fill:#FFFFFF;}</style><path class="st0" d="M72.2,0.5L46.4,39.4L100.7,7C92.7,1.5,82.5-1.1,72.2,0.5z"></path><path class="st0" d="M66.3,1.8c-17.2,5.4-27.9,21.9-25.8,39L66.3,1.8z"></path><path class="st0" d="M91.5,70.7c16.1-5.7,26.3-21.3,24.7-37.7L91.5,70.7z"></path><path class="st0" d="M104.1,9.7l-52,30.9l62.5-15C112.6,19.4,108.9,13.9,104.1,9.7z"></path><path class="st0" d="M53.2,63.9L105.6,32L42,47.2C44.1,53.9,48,59.5,53.2,63.9z"></path><path class="st0" d="M85.5,72.3l25.5-38.8l-54.3,33C64.8,71.9,75.1,74.3,85.5,72.3z"></path><path class="st1" d="M105.5,123.7c0-2.6,0-5.2,0-7.8C105.5,118.5,105.5,121.1,105.5,123.7z"></path><path class="st1" d="M58.3,107.1c0.2-1,0.5-2.1,0.7-3.1c0.2-1.1,0.4-2.1,0.7-3.2c0.1-0.5-0.1-0.6-0.6-0.6c-1.8,0-3.7,0-5.5,0 c-0.2,0-0.6,0.3-0.6,0.5c-0.2,0.5-0.2,1-0.2,1.5c-0.4,2.2-0.7,4.5-1.1,6.7c0,0.2-0.2,0.5-0.3,0.7c-0.1,0-0.2,0-0.3,0 c-0.1-0.7-0.2-1.4-0.3-2c-0.4-2.2-0.7-4.5-1-6.7c0-0.4-0.2-0.5-0.6-0.5c-1.9,0-3.8,0-5.7,0c-0.4,0-0.6,0.2-0.5,0.5 c0.2,0.9,0.4,1.8,0.6,2.8c0.3,1.4,0.6,2.8,1,4.2c0.3,1.5,0.6,2.9,1,4.3c0.2,0.7,0.3,1.3,0.4,1.9l11-1.2c0.1-0.5,0.3-1,0.4-1.5 C57.7,109.8,58,108.5,58.3,107.1z"></path><path class="st1" d="M68,109.5c0-0.9,0-1.8,0-2.7c0-0.9,0.3-1.3,0.9-1.3s0.8,0.3,0.8,1.3s0,2.1,0,3.1c0,0.5,0.2,0.7,0.7,0.7 c0.9,0,1.7,0,2.6,0c0.9,0,1.8,0,2.7,0c0.5,0,0.7-0.2,0.7-0.7c-0.1-1.8-0.1-3.5-0.2-5.3c-0.2-2-1.4-3.5-3.3-4.1 c-2.5-0.9-5.1-0.9-7.6-0.2c-2.2,0.6-3.5,2.2-3.8,4.4c-0.2,1.7-0.2,3.5-0.2,5.3c0,0.7,0,1.5,0.2,2.2l7.2-0.8 C68.2,111,68,110.3,68,109.5z"></path><path class="st1" d="M94.4,107.5c0-1.3-0.1-2.6-0.3-4c-0.2-1.2-0.8-2.2-2-2.7c-0.8-0.3-1.6-0.5-2.3-0.5c-3.3-0.1-6.5-0.1-9.8-0.1 c-0.9,0-0.9,0-0.9,0.9c0,3.3,0,6.5,0,9.8l6.9,1.1c0-1.8,0-3.6,0-5.5c0-0.3-0.1-0.7,0.4-0.7c0.7-0.1,1.2,0.2,1.2,0.6 c0,0.3,0.1,0.7,0.1,1c0,1.6,0,3.2,0,4.8l6.8,1C94.5,111.3,94.4,109.4,94.4,107.5z"></path><path class="st1" d="M87.7,118.4c0,0.3,0,0.5,0,0.8c-0.1,0.7-0.9,1.1-1.4,0.8c-0.2-0.1-0.2-0.4-0.2-0.7c0-0.9,0-1.8,0-2.7 s0-1.8,0-2.7l-6.9-1.1c0,1.3,0,2.6,0,3.9c0,4.6,0,9.2,0,13.8c0,0.6,0.1,0.8,0.8,0.8c1.8,0,3.6,0,5.4,0c0.6,0,0.7-0.2,0.7-0.7 c0-1.4,0-2.8,0-4.1c0-0.9,0-0.9,1-0.9c1,0,2.1,0,3.1-0.1c1.6-0.2,3.1-0.6,3.8-2.2c0.4-1,0.6-2,0.6-3.1c0-1.7,0-3.3,0-5l-6.8-1 C87.7,115.5,87.7,117,87.7,118.4z"></path><path class="st1" d="M40,100.2c-1.8,0-3.5,0-5.3,0c-0.7,0-0.9,0.2-0.9,0.9c0,4.6,0,9.1,0,13.7c0,0.2,0,0.3,0,0.5l6.9-0.8 c0-4.5,0-9,0-13.5C40.7,100.4,40.5,100.2,40,100.2z"></path><path class="st1" d="M61.9,115.1c0.8,1.6,2.2,2.5,3.7,3.1c1,0.4,2,0.8,2.9,1.3c0.6,0.3,1.2,0.7,1.2,1.5c0,1.4,0,2.8,0,4.1 c0,0.6-0.6,1-1.1,0.7c-0.3-0.2-0.6-0.6-0.6-0.9c-0.1-1.2,0-2.4,0-3.6c0-0.5-0.2-0.7-0.7-0.7c-1.7,0-3.5,0-5.2,0 c-0.6,0-0.8,0.2-0.8,0.7c0,1.6,0,3.1,0.1,4.7c0.1,2.3,1.4,4,3.7,4.8c1.8,0.6,3.6,0.7,5.4,0.5c3.7-0.4,6-2.1,6.1-6.3 c0-1.3,0-2.7,0-4.1c0.1-2.6-1.2-4.5-3.6-5.7c-1.1-0.5-2.2-1-3.3-1.5c-0.3-0.2-0.6-0.3-0.8-0.5l-7.2,0.8 C61.6,114.5,61.7,114.8,61.9,115.1z"></path><path class="st1" d="M45.7,119c-0.4,1.4-0.7,2.8-1,4.3c-0.3,1.4-0.6,2.8-1,4.2c-0.3,1.2-0.6,2.5-0.8,3.7c0.1,0.1,0.2,0.1,0.2,0.1 c2,0,4.1,0,6.1,0c0.2,0,0.4-0.2,0.4-0.4c0.1-0.5,0.2-1,0.3-1.5c0.4-2.2,0.7-4.5,1.1-6.7c0-0.3,0.2-0.7,0.3-1c0.1,0,0.2,0,0.2,0 c0.1,0.2,0.2,0.3,0.2,0.5c0.2,1.2,0.4,2.3,0.6,3.4c0.3,1.8,0.6,3.6,0.9,5.5c0,0.2,0.3,0.3,0.4,0.3c2,0,4,0,5.9,0 c0.1,0,0.4-0.3,0.4-0.5c-0.3-1.3-0.6-2.6-0.9-3.8c-0.3-1.4-0.7-2.8-1-4.1c-0.4-1.5-0.7-3-1-4.5c-0.2-0.8-0.4-1.6-0.3-2.3 c0-0.5,0.2-1,0.3-1.5l-11,1.2C46.1,116.9,46,117.9,45.7,119z"></path><path class="st1" d="M33.8,130.5c0,0.6,0.1,0.8,0.8,0.8c1.8,0,3.6,0,5.4,0c0.5,0,0.7-0.2,0.7-0.7c0-4.8,0-9.5,0-14.3l-6.9,0.8 C33.8,121.6,33.8,126,33.8,130.5z"></path><path class="st1" d="M27.7,113.5c-1.1-0.5-2.3-1-3.4-1.5c-1-0.5-1.6-1.2-1.5-2.4c0-1,0-2,0-3c0-0.7,0.3-1.1,0.9-1.1 c0.8,0,0.8,0.5,0.8,1c0,1.2,0,2.3,0,3.5c0,0.5,0.2,0.7,0.7,0.7c0.9,0,1.8,0,2.7,0s1.8,0,2.7,0c0.5,0,0.8-0.1,0.7-0.7 c-0.1-1.8-0.1-3.5-0.3-5.3c-0.2-2-1.4-3.4-3.3-4.1c-2.5-0.9-5.1-0.9-7.6-0.2c-2.2,0.6-3.5,2.2-3.8,4.4c-0.2,1.8-0.2,3.6-0.2,5.5 c0,1,0.2,2.1,0.6,3c0.6,1.6,2.1,2.5,3.7,3.2c0.1,0,0.2,0.1,0.4,0.2l9.6-1.1C29.7,114.7,28.7,114,27.7,113.5z"></path><path class="st1" d="M23.4,119.7c0.6,0.3,1.1,0.7,1.1,1.4c0,1.4,0,2.8,0,4.2c0,0.5-0.3,0.8-0.8,0.7c-0.6,0-0.8-0.4-0.8-0.9 c0-1.2,0-2.4,0-3.6c0-0.5-0.2-0.7-0.7-0.7c-1.7,0-3.4,0-5.1,0c-0.6,0-0.8,0.2-0.8,0.8c0,1.6,0,3.1,0.1,4.7c0.1,2,1.1,3.7,3.1,4.5 c2.5,1.1,5.1,1,7.8,0.3c2.4-0.6,3.8-2.2,4.1-4.5c0.2-2.4,0.2-4.8,0-7.1c-0.1-0.8-0.4-1.5-0.8-2.1l-9.6,1.1 C21.6,118.9,22.5,119.3,23.4,119.7z"></path><path class="st1" d="M142.7,106.6c0-0.8,0-0.9,0.9-0.9c0.7,0,1.5,0,2.2,0c0.6,0,0.8-0.2,0.8-0.7c0-1.4,0-2.8,0-4.1 c0-0.5-0.2-0.7-0.8-0.7c-1.6,0-3.1,0-4.7,0c-2.8,0-5.7,0-8.5,0c-0.6,0-0.8,0.2-0.8,0.8c0,1.3,0,2.7,0,4.1c0,0.5,0.2,0.7,0.7,0.7 c0.8,0,1.6,0,2.5,0c0.6,0,0.9,0.2,0.9,0.8c0,1.8,0,3.6,0,5.4l6.8,1.2C142.7,111,142.7,108.8,142.7,106.6z"></path><path class="st1" d="M130.2,107.1c0-1.2-0.1-2.3-0.3-3.5c-0.2-1.4-1-2.5-2.4-2.9c-0.6-0.2-1.3-0.3-2-0.4c-3.3-0.1-6.7-0.1-10-0.1 c-0.6,0-0.7,0.3-0.7,0.7c0,4.1,0,8.3,0,12.4l6.9-1.2c0-0.4,0-0.8,0-1.2c0-1.5,0-3,0-4.4c0-0.3-0.1-0.7,0.4-0.7 c0.7-0.1,1.2,0.2,1.2,0.6c0,0.2,0,0.3,0,0.5c0,1.7,0,3.3,0,5l5.1-0.9l1.7,0.3C130.3,109.8,130.3,108.5,130.2,107.1z"></path><path class="st1" d="M108.8,100.6c-2.6-0.9-5.3-0.9-7.8-0.2c-2.5,0.7-3.9,2.6-4,5.2c0,2.6,0,5.3,0,7.9l6.8,1.1c0-2.6,0-5.3,0-7.9 c0-0.1,0-0.2,0-0.3c0-0.5,0.3-0.9,0.9-0.9c0.6,0,0.8,0.3,0.8,0.8c0,1,0,2,0,3c0,1.8,0,3.6,0,5.5c0,0,0,0,0,0h0l6.9-1.2 c0-2.8,0-5.6-0.1-8.4C112.3,103,111,101.3,108.8,100.6z"></path><path class="st1" d="M123.5,113.7c0,1.1,0,2.2,0,3.3c0,0.8-0.3,1-1,1c-0.5,0-0.7-0.1-0.7-0.7c0-0.4,0-0.8,0-1.2c0-0.7,0-1.5,0-2.2 l-6.9,1.2c0,5.1,0,10.3,0,15.4c0,0.5,0.2,0.7,0.7,0.7c1.8,0,3.5,0,5.3,0c0.6,0,0.9-0.2,0.8-0.8c0-2.3,0-4.5,0-6.8 c0-0.3,0-0.7,0.4-0.6c0.2,0,0.6,0.2,0.6,0.4c0.2,0.7,0.4,1.5,0.6,2.2c0.4,1.6,0.8,3.2,1.2,4.8c0.1,0.5,0.4,0.7,1,0.7 c1.5,0,3,0,4.5,0c0.2,0,0.5,0,0.9,0c-0.4-1.3-0.7-2.4-1-3.5c-0.5-1.9-1-3.8-1.5-5.6c0-0.2,0-0.6,0.2-0.8c1.2-1.2,1.7-2.6,1.6-4.2 c0-1.3,0-2.7,0-4.1l-1.7-0.3L123.5,113.7z"></path><path class="st1" d="M105.5,116.7c0,2.6,0,5.2,0,7.8c0,0.2,0.1,0.5,0,0.7c-0.2,0.3-0.4,0.6-0.8,0.7c-0.4,0.1-0.8-0.2-0.9-0.6 c0-0.2,0-0.3,0-0.5c0-2.8,0-5.6,0-8.4l-6.8-1.1c0,0.4,0,0.8,0,1.3c0,3.1-0.1,6.3,0,9.4c0.1,2.4,1.5,4.2,3.8,4.9 c2.3,0.7,4.8,0.7,7.2,0.2c1.8-0.4,3.3-1.4,3.9-3.2c0.4-1,0.5-2.1,0.5-3.1c0-3.1,0-6.2,0-9.3L105.5,116.7z"></path><path class="st1" d="M142.6,122.2c0-2.3,0-4.7,0-7.1l-6.8-1.2c0,1.9,0,3.7,0,5.6c0,3.7,0,7.3,0,11c0,0.7,0.2,0.8,0.9,0.8 c1.8,0,3.5,0,5.3,0c0.6,0,0.8-0.2,0.8-0.8C142.6,127.7,142.6,125,142.6,122.2z"></path><path class="st0" d="M26.1,154.5h-7v4.8c0,0.9-0.4,1.1-0.9,1.1c-0.5,0-0.9-0.2-0.9-1.1V142c0-0.9,0.4-1.1,0.9-1.1 c0.5,0,0.9,0.3,0.9,1.1v4.8h7V142c0-5.2-3.1-7-7.9-7c-4.8,0-7.9,1.8-7.9,7v17.4c0,5.2,3.1,7,7.9,7c4.8,0,7.9-1.7,7.9-7V154.5z  M36.7,135c-4.8,0-7.9,1.8-7.9,7v17.3c0,5.2,3.1,7,7.9,7c4.8,0,7.9-1.8,7.9-7V142C44.6,136.8,41.5,135,36.7,135z M37.6,142v17.3 c0,0.9-0.4,1.1-0.9,1.1c-0.5,0-0.9-0.3-0.9-1.1V142c0-0.9,0.4-1.1,0.9-1.1C37.2,140.9,37.6,141.2,37.6,142z M57.2,166H64l-2.8-30.7 H49.1L46.3,166h6.8l0.3-4.8h3.4L57.2,166z M53.9,155.3l1-13.6h0.6l1,13.6H53.9z M81.5,154.5h-7v4.8c0,0.9-0.4,1.1-0.9,1.1 c-0.5,0-0.9-0.2-0.9-1.1V142c0-0.9,0.4-1.1,0.9-1.1c0.5,0,0.9,0.3,0.9,1.1v4.8h7V142c0-5.2-3.1-7-7.9-7c-4.8,0-7.9,1.8-7.9,7v17.4 c0,5.2,3.1,7,7.9,7c4.8,0,7.9-1.7,7.9-7V154.5z M93,135.3v12.8h-1.7v-12.8h-7V166h7v-12H93v12h7v-30.7H93z M102.7,166h7v-30.7h-7 V166z M112.4,166h6.5v-14.5l-0.2-4.5h0.4l2.9,19h8.8v-30.7h-6.5v14.5l0.2,4.5h-0.4l-2.9-19h-8.8V166z M149.2,146.3V142 c0-5.2-3.1-7-7.9-7c-4.8,0-7.9,1.8-7.9,7v17.3c0,5.2,3.1,7,7.9,7c4.8,0,7.9-1.8,7.9-7V148h-7.8v5.6h1.1v5.7c0,0.9-0.4,1.1-1.1,1.1 c-0.8,0-1.1-0.3-1.1-1.1V142c0-0.9,0.4-1.1,0.9-1.1c0.5,0,0.9,0.3,0.9,1.1v4.2H149.2z"></path></svg>