<svg xmlns="http://www.w3.org/2000/svg" id="Layer_2" data-name="Layer 2" viewBox="0 0 113.39 141.35"><defs><style>      .cls-1 {        fill: #fff;      }      .cls-2 {        fill: #e53336;      }    </style></defs><g id="Layer_1-2" data-name="Layer 1"><g><path class="cls-2" d="m51.37.37l-20.61,31.07L74.1,5.61C67.75,1.17,59.58-.9,51.37.37Z"></path><path class="cls-2" d="m46.65,1.46c-13.73,4.34-22.29,17.47-20.61,31.16L46.65,1.46Z"></path><path class="cls-2" d="m66.77,56.46c12.89-4.58,20.96-17,19.68-30.08l-19.68,30.08Z"></path><path class="cls-2" d="m76.85,7.78l-41.47,24.69,49.89-11.95c-1.67-5.05-4.62-9.4-8.41-12.75Z"></path><path class="cls-2" d="m36.17,50.98l41.82-25.4-50.77,12.13c1.67,5.34,4.82,9.82,8.95,13.27Z"></path><path class="cls-2" d="m61.95,57.74l20.32-30.97-43.34,26.35c6.54,4.3,14.76,6.19,23.02,4.63Z"></path></g><path class="cls-1" d="m39.76,88.96c.17-.75.34-1.49.51-2.24.17-.77.31-1.55.48-2.3.08-.33-.08-.41-.39-.41-1.29,0-2.59,0-3.85.03-.17,0-.42.19-.45.33-.11.33-.11.72-.17,1.08-.25,1.6-.51,3.21-.76,4.81-.03.17-.14.33-.2.5-.08,0-.14-.03-.22-.03-.06-.5-.14-1-.2-1.47-.25-1.6-.51-3.21-.73-4.81-.03-.28-.14-.39-.42-.39h-4.05c-.28,0-.39.14-.34.39.14.66.31,1.33.45,1.99.22,1.02.45,2.02.67,3.04.22,1.05.42,2.1.7,3.12.14.47.22.91.25,1.36l7.79-.88c.08-.36.2-.69.28-1.05.22-1.08.45-2.07.65-3.07Zm6.83,1.74c.03-.64,0-1.3,0-1.94s.2-.97.65-.97.56.22.56.97.03,1.52,0,2.27c0,.36.14.5.51.5.62-.03,1.21,0,1.83,0h1.94c.34,0,.51-.11.48-.47-.06-1.27-.06-2.54-.17-3.82-.14-1.44-.96-2.49-2.33-2.99-1.77-.64-3.6-.64-5.4-.11-1.57.44-2.5,1.58-2.7,3.18-.14,1.24-.11,2.52-.11,3.79,0,.53.03,1.05.17,1.58l5.12-.58c-.37-.33-.56-.8-.53-1.41Zm18.66-1.44c0-.97-.08-1.91-.2-2.88-.11-.88-.56-1.6-1.43-1.94-.53-.22-1.1-.39-1.66-.39-2.3-.06-4.58-.06-6.89-.08q-.65,0-.65.66v7.02l4.86.77v-3.93c0-.22-.06-.5.31-.53.48-.06.82.11.87.44.03.22.06.47.06.72v3.48l4.78.75c-.03-1.36-.06-2.74-.06-4.12Zm-4.78,7.85c0,.19,0,.39-.03.58-.06.47-.62.8-1.01.55-.11-.06-.17-.3-.17-.47v-3.93l-4.86-.77v12.75c0,.41.08.58.56.58,1.26-.03,2.53-.03,3.82,0,.39,0,.51-.11.51-.5-.03-1,0-1.99,0-2.99q0-.64.67-.66c.73,0,1.49,0,2.22-.08,1.15-.11,2.22-.44,2.67-1.6.25-.69.39-1.47.42-2.21.03-1.19.03-2.41.03-3.6l-4.78-.75c-.06,1.02-.06,2.07-.06,3.1Zm-33.68-13.14c-1.24.03-2.47.03-3.71,0-.51,0-.62.17-.62.64.03,3.29,0,6.58,0,9.87v.33l4.86-.55v-9.73c0-.41-.14-.55-.53-.55Zm15.46,10.79c.56,1.13,1.52,1.77,2.61,2.27.67.3,1.38.61,2.05.94.42.22.84.53.87,1.05.03,1,.03,1.99,0,2.99,0,.44-.39.72-.76.5-.2-.11-.39-.41-.42-.64-.06-.86-.03-1.74-.03-2.6,0-.36-.14-.47-.48-.47-1.21,0-2.45.03-3.65,0-.39,0-.53.14-.53.53.03,1.13,0,2.27.06,3.4.08,1.63,1.01,2.9,2.59,3.43,1.24.41,2.53.47,3.82.33,2.61-.28,4.24-1.52,4.27-4.56,0-.97-.03-1.96,0-2.93.06-1.91-.87-3.26-2.56-4.09-.79-.39-1.57-.72-2.36-1.11-.22-.11-.39-.22-.56-.36l-5.12.58c.03.28.08.53.2.75Zm-11.44,2.77c-.28,1.02-.48,2.05-.7,3.07-.22,1.02-.45,2.02-.67,3.04-.2.89-.39,1.77-.59,2.65.08.06.14.08.17.08,1.43,0,2.87.03,4.3,0,.11,0,.28-.17.31-.28.08-.36.14-.75.2-1.11.25-1.6.51-3.24.79-4.84.03-.25.14-.47.22-.72.06,0,.11-.03.17-.03.06.11.14.22.17.33.14.83.28,1.63.39,2.46.2,1.3.39,2.6.62,3.93.03.11.2.25.31.25,1.41.03,2.81.03,4.19,0,.08,0,.28-.22.25-.33-.2-.91-.39-1.85-.62-2.77-.22-1-.48-1.99-.7-2.99-.25-1.08-.51-2.13-.73-3.21-.11-.55-.28-1.13-.22-1.66.03-.36.11-.72.2-1.08l-7.79.88c.03.77-.03,1.52-.25,2.3Zm-8.35,8.3c0,.41.08.61.56.58,1.26-.03,2.53-.03,3.82,0,.37,0,.51-.11.51-.5v-10.29l-4.86.55c-.03,3.21-.03,6.42-.03,9.65Zm-4.36-12.27c-.79-.39-1.6-.72-2.39-1.11-.7-.33-1.1-.88-1.04-1.71.03-.72,0-1.41,0-2.13,0-.53.22-.8.62-.8.53,0,.59.36.59.75,0,.83.03,1.69,0,2.52,0,.33.14.5.48.47h3.77c.37,0,.53-.08.51-.47-.06-1.27-.06-2.54-.2-3.82-.14-1.44-.96-2.46-2.33-2.99-1.77-.64-3.6-.64-5.4-.11-1.57.44-2.5,1.58-2.67,3.15-.14,1.3-.14,2.63-.11,3.93.03.72.17,1.49.42,2.16.45,1.16,1.49,1.77,2.59,2.3.08.03.17.08.25.11l6.77-.77c-.42-.61-1.1-1.11-1.86-1.47Zm-3.04,4.48c.39.22.79.5.79,1,.03,1.02.03,2.02,0,3.04,0,.36-.22.55-.59.53-.42-.03-.59-.28-.59-.66,0-.86-.03-1.74,0-2.6,0-.36-.11-.5-.51-.5-1.21.03-2.42.03-3.63,0-.45,0-.59.17-.56.58.03,1.13,0,2.24.06,3.37.08,1.47.76,2.65,2.19,3.26,1.77.77,3.63.72,5.48.25,1.69-.41,2.7-1.58,2.87-3.21.17-1.71.17-3.46,0-5.14-.06-.61-.28-1.11-.59-1.55l-6.77.77c.62.28,1.24.55,1.86.86Zm84.22-9.4c0-.61,0-.64.65-.64.51,0,1.04-.03,1.55,0,.39.03.56-.11.53-.53-.03-1-.03-1.99,0-2.99,0-.39-.14-.53-.53-.53-1.1.03-2.22,0-3.32,0h-5.99c-.42,0-.59.14-.59.58.03.97.03,1.96,0,2.93,0,.36.14.53.51.5.59-.03,1.15.03,1.74,0,.45-.03.62.14.62.61v3.9l4.83.88v-4.73Zm-8.77.36c0-.86-.08-1.69-.2-2.54-.14-1.02-.7-1.77-1.69-2.1-.45-.17-.93-.25-1.41-.28-2.36-.06-4.72-.06-7.08-.08-.42,0-.48.19-.48.53v8.93l4.86-.88v-4.07c0-.22-.08-.5.31-.53.48-.06.82.11.87.44.03.11.03.22.03.33v3.57l3.6-.66,1.18.22c.03-.94.03-1.91,0-2.88Zm-15.12-4.73c-1.83-.66-3.71-.64-5.54-.11-1.8.53-2.78,1.91-2.81,3.76-.03,1.88,0,3.79,0,5.67l4.83.77v-5.89c.03-.39.2-.64.62-.64.39,0,.56.25.56.61v6.08h.03l4.86-.88c0-2.02-.03-4.04-.08-6.03-.03-1.6-.9-2.79-2.47-3.35Zm10.34,9.46v2.41c0,.58-.2.69-.7.75-.37.03-.51-.08-.51-.47v-2.43l-4.86.88v11.09c0,.39.14.5.51.5,1.26-.03,2.5-.03,3.77,0,.45,0,.62-.11.59-.58-.03-1.63,0-3.26,0-4.89,0-.19,0-.47.31-.41.17.03.42.17.45.3.17.53.28,1.05.42,1.6.28,1.16.56,2.32.84,3.48.08.36.28.53.7.53,1.07-.03,2.11,0,3.18-.03.17,0,.34-.03.62-.03-.25-.91-.48-1.74-.67-2.54-.37-1.36-.73-2.71-1.07-4.07-.03-.17,0-.41.11-.55.82-.86,1.18-1.85,1.15-3.01v-2.93l-1.18-.22-3.65.64Zm-12.68,2.18v5.61c0,.17.06.39-.03.53-.11.19-.31.44-.53.5-.31.08-.53-.14-.62-.44-.03-.11-.03-.25-.03-.39v-6.03l-4.83-.77v.94c0,2.27-.06,4.54.03,6.78.06,1.71,1.04,3.04,2.7,3.54,1.66.53,3.37.53,5.06.11,1.29-.3,2.33-1.02,2.78-2.32.25-.72.37-1.52.37-2.27v-6.72l-4.89.94Zm26.23,3.93v-5.09l-4.83-.88v11.97c0,.47.14.58.62.58,1.24-.03,2.47-.03,3.71,0,.42,0,.53-.14.53-.55-.03-2.02-.03-4.01-.03-6.03Z"></path><g><path class="cls-2" d="m13.13,111.94H0v4.75h3.73v24.37h5.67v-24.37h3.73v-4.75Z"></path><path class="cls-2" d="m29.35,141.07l-2.5-9.85c1.17-.92,1.9-2.37,1.9-4.56v-8.48c0-4.5-.95-6.24-5.6-6.24h-8.04v29.12h5.66v-8.52h1.46l2.03,8.52h5.1Zm-8.58-24.4h1.05c1.07,0,1.39.38,1.39,1.55v8.45c0,1.01-.26,1.46-1.01,1.52l-1.43.03v-11.55Z"></path><path class="cls-2" d="m40.62,141.07h5.48l-2.89-29.12h-9.81l-2.88,29.12h5.47l.45-5h3.73l.45,5Zm-3.8-9.75l1.24-14.24h.51l1.23,14.24h-2.98Z"></path><path class="cls-2" d="m47.91,141.07h5.66v-29.12h-5.66v29.12Z"></path><path class="cls-2" d="m55.7,141.07h5.22v-15.92l-.16-3.86h.35l3.36,19.78h7.19v-29.12h-5.22v15.92l.16,3.86h-.35l-3.36-19.78h-7.18v29.12Z"></path><path class="cls-2" d="m73.78,141.07h5.66v-29.12h-5.66v29.12Z"></path><path class="cls-2" d="m81.57,141.07h5.22v-15.92l-.16-3.86h.35l3.36,19.78h7.19v-29.12h-5.22v15.92l.16,3.86h-.35l-3.36-19.78h-7.18v29.12Z"></path><path class="cls-2" d="m113.39,122.01v-4.11c0-4.69-2.76-6.23-6.87-6.23s-6.87,1.55-6.87,6.23v17.22c0,4.68,2.75,6.23,6.87,6.23s6.87-1.56,6.87-6.23v-10.8h-6.87v4.56h1.52v6.2c0,1.17-.54,1.52-1.4,1.52s-1.36-.35-1.36-1.52v-17.15c0-1.17.54-1.52,1.24-1.52s1.23.35,1.23,1.52v4.08h5.64Z"></path></g></g></svg>