<svg xmlns="http://www.w3.org/2000/svg" id="Layer_2" data-name="Layer 2" viewBox="0 0 175.77 64.62"><defs><style>      .cls-1 {        fill: #ec5757;      }      .cls-2 {        fill: #eb5757;      }    </style></defs><g id="Layer_1-2" data-name="Layer 1"><path class="cls-1" d="m90.18,36.34h-11.21v4.06h3.19v20.81h4.84v-20.81h3.19v-4.06Z"></path><path class="cls-1" d="m104.02,61.2l-2.14-8.41c1-.78,1.62-2.03,1.62-3.89v-7.24c0-3.84-.81-5.33-4.78-5.33h-6.86v24.86h4.83v-7.27h1.24l1.73,7.27h4.35Zm-7.33-20.83h.9c.92,0,1.19.32,1.19,1.32v7.21c0,.86-.22,1.24-.86,1.3l-1.22.03v-9.86Z"></path><path class="cls-1" d="m113.64,61.2h4.68l-2.46-24.86h-8.38l-2.46,24.86h4.67l.38-4.27h3.19l.38,4.27Zm-3.24-8.32l1.06-12.16h.43l1.05,12.16h-2.54Z"></path><path class="cls-1" d="m119.86,61.2h4.83v-24.86h-4.83v24.86Z"></path><path class="cls-1" d="m126.52,61.2h4.46v-13.59l-.14-3.3h.3l2.86,16.89h6.14v-24.86h-4.46v13.59l.14,3.3h-.3l-2.87-16.89h-6.13v24.86Z"></path><path class="cls-1" d="m141.95,61.2h4.83v-24.86h-4.83v24.86Z"></path><path class="cls-1" d="m148.61,61.2h4.46v-13.59l-.14-3.3h.3l2.86,16.89h6.14v-24.86h-4.46v13.59l.14,3.3h-.3l-2.87-16.89h-6.13v24.86Z"></path><path class="cls-1" d="m175.77,44.93v-3.51c0-4-2.35-5.32-5.86-5.32s-5.86,1.32-5.86,5.32v14.7c0,3.99,2.35,5.32,5.86,5.32s5.86-1.33,5.86-5.32v-9.22h-5.86v3.89h1.3v5.3c0,1-.46,1.3-1.19,1.3s-1.16-.3-1.16-1.3v-14.65c0-1,.46-1.3,1.06-1.3s1.05.3,1.05,1.3v3.48h4.81Z"></path><g><path class="cls-2" d="m28.33.41L5.47,34.86,53.53,6.22C46.49,1.3,37.44-1,28.33.41Z"></path><path class="cls-2" d="m23.09,1.62C7.87,6.43-1.62,20.99.23,36.17L23.09,1.62Z"></path><path class="cls-2" d="m45.4,62.61c14.29-5.08,23.24-18.85,21.82-33.35l-21.82,33.35Z"></path><path class="cls-2" d="m56.59,8.63L10.6,36.01l55.32-13.25c-1.85-5.6-5.13-10.42-9.33-14.14Z"></path><path class="cls-2" d="m11.47,56.54l46.37-28.17L1.54,41.83c1.85,5.92,5.35,10.89,9.93,14.71Z"></path><path class="cls-2" d="m40.06,64.02l22.53-34.35L14.52,58.89c7.26,4.76,16.37,6.86,25.53,5.13Z"></path></g><path d="m109.92,9.66c.18-.78.35-1.56.53-2.34.18-.81.32-1.62.5-2.4.09-.35-.09-.43-.41-.43-1.35,0-2.7,0-4.02.03-.18,0-.44.2-.47.35-.12.35-.12.75-.18,1.13-.26,1.68-.53,3.35-.79,5.03-.03.17-.15.35-.21.52-.09,0-.15-.03-.23-.03-.06-.52-.15-1.04-.21-1.53-.26-1.68-.53-3.35-.76-5.03-.03-.29-.15-.4-.44-.4h-4.23c-.29,0-.41.14-.35.4.15.69.32,1.39.47,2.08.23,1.07.47,2.11.7,3.18.23,1.1.44,2.2.73,3.26.15.49.23.95.26,1.42l8.13-.92c.09-.38.21-.72.29-1.1.23-1.13.47-2.17.68-3.21Z"></path><path d="m117.05,11.48c.03-.66,0-1.36,0-2.02s.21-1.01.68-1.01.59.23.59,1.01.03,1.59,0,2.37c0,.38.15.52.53.52.65-.03,1.26,0,1.91,0h2.03c.35,0,.53-.12.5-.49-.06-1.33-.06-2.66-.18-3.99-.15-1.5-1-2.6-2.44-3.12-1.85-.66-3.76-.66-5.64-.12-1.64.46-2.61,1.65-2.82,3.32-.15,1.3-.12,2.63-.12,3.96,0,.55.03,1.1.18,1.65l5.34-.61c-.38-.35-.59-.84-.56-1.47Z"></path><path d="m136.55,9.98c0-1.01-.09-1.99-.21-3-.12-.92-.59-1.68-1.5-2.02-.56-.23-1.15-.4-1.73-.4-2.41-.06-4.79-.06-7.19-.09q-.68,0-.68.69v7.34l5.08.81v-4.1c0-.23-.06-.52.32-.55.5-.06.85.12.91.46.03.23.06.49.06.75v3.64l4.99.78c-.03-1.42-.06-2.86-.06-4.3Z"></path><path d="m131.56,18.18c0,.2,0,.4-.03.61-.06.49-.65.84-1.06.58-.12-.06-.18-.32-.18-.49v-4.1l-5.08-.81v13.32c0,.43.09.61.59.61,1.32-.03,2.64-.03,3.99,0,.41,0,.53-.12.53-.52-.03-1.04,0-2.08,0-3.12q0-.66.7-.69c.76,0,1.56,0,2.32-.09,1.2-.12,2.32-.46,2.79-1.68.26-.72.41-1.53.44-2.31.03-1.24.03-2.51.03-3.76l-4.99-.78c-.06,1.07-.06,2.17-.06,3.24Z"></path><path d="m96.38,4.46c-1.29.03-2.58.03-3.88,0-.53,0-.65.17-.65.66.03,3.44,0,6.88,0,10.31v.35l5.08-.58V5.04c0-.43-.15-.58-.56-.58Z"></path><path d="m112.53,15.73c.59,1.18,1.59,1.85,2.73,2.37.7.32,1.44.64,2.14.98.44.23.88.55.91,1.1.03,1.04.03,2.08,0,3.12,0,.46-.41.75-.79.52-.21-.12-.41-.43-.44-.66-.06-.9-.03-1.82-.03-2.72,0-.38-.15-.49-.5-.49-1.26,0-2.55.03-3.82,0-.41,0-.56.14-.56.55.03,1.18,0,2.37.06,3.55.09,1.7,1.06,3.03,2.7,3.58,1.29.43,2.64.49,3.99.35,2.73-.29,4.43-1.59,4.46-4.77,0-1.01-.03-2.05,0-3.06.06-1.99-.91-3.41-2.67-4.28-.82-.4-1.64-.75-2.47-1.16-.23-.12-.41-.23-.59-.38l-5.34.61c.03.29.09.55.21.78Z"></path><path d="m100.58,18.61c-.29,1.07-.5,2.14-.73,3.21-.23,1.07-.47,2.11-.7,3.18-.21.92-.41,1.85-.62,2.77.09.06.15.09.18.09,1.5,0,3,.03,4.49,0,.12,0,.29-.17.32-.29.09-.38.15-.78.21-1.16.26-1.68.53-3.38.82-5.06.03-.26.15-.49.23-.75.06,0,.12-.03.18-.03.06.12.15.23.18.35.15.87.29,1.7.41,2.57.21,1.36.41,2.72.65,4.1.03.12.21.26.32.26,1.47.03,2.94.03,4.38,0,.09,0,.29-.23.26-.35-.21-.95-.41-1.94-.65-2.89-.23-1.04-.5-2.08-.73-3.12-.26-1.13-.53-2.22-.76-3.35-.12-.58-.29-1.18-.23-1.73.03-.38.12-.75.21-1.13l-8.13.92c.03.81-.03,1.59-.26,2.4Z"></path><path d="m91.86,27.28c0,.43.09.64.59.61,1.32-.03,2.64-.03,3.99,0,.38,0,.53-.12.53-.52v-10.75l-5.08.58c-.03,3.35-.03,6.7-.03,10.08Z"></path><path d="m87.31,14.46c-.82-.4-1.67-.75-2.5-1.16-.73-.35-1.15-.92-1.09-1.79.03-.75,0-1.47,0-2.22,0-.55.23-.84.65-.84.56,0,.62.38.62.78,0,.87.03,1.76,0,2.63,0,.35.15.52.5.49h3.93c.38,0,.56-.09.53-.49-.06-1.33-.06-2.66-.21-3.99-.15-1.5-1-2.57-2.44-3.12-1.85-.66-3.76-.66-5.64-.12-1.64.46-2.61,1.65-2.79,3.29-.15,1.36-.15,2.74-.12,4.1.03.75.18,1.56.44,2.25.47,1.21,1.56,1.85,2.7,2.4.09.03.18.09.26.12l7.08-.81c-.44-.64-1.15-1.16-1.94-1.53Z"></path><path d="m84.13,19.14c.41.23.82.52.82,1.04.03,1.07.03,2.11,0,3.18,0,.38-.23.58-.62.55-.44-.03-.62-.29-.62-.69,0-.9-.03-1.82,0-2.72,0-.38-.12-.52-.53-.52-1.26.03-2.53.03-3.79,0-.47,0-.62.17-.59.61.03,1.18,0,2.34.06,3.52.09,1.53.79,2.77,2.29,3.41,1.85.81,3.79.75,5.73.26,1.76-.43,2.82-1.65,3-3.35.18-1.79.18-3.61,0-5.37-.06-.64-.29-1.16-.62-1.62l-7.08.81c.65.29,1.29.58,1.94.9Z"></path><path d="m172.11,9.31c0-.64,0-.66.68-.66.53,0,1.09-.03,1.62,0,.41.03.59-.12.56-.55-.03-1.04-.03-2.08,0-3.12,0-.4-.15-.55-.56-.55-1.15.03-2.32,0-3.47,0h-6.25c-.44,0-.62.14-.62.61.03,1.01.03,2.05,0,3.06,0,.38.15.55.53.52.62-.03,1.2.03,1.82,0,.47-.03.65.14.65.64v4.07l5.05.92v-4.94Z"></path><path d="m162.95,9.69c0-.9-.09-1.76-.21-2.66-.15-1.07-.73-1.85-1.76-2.2-.47-.17-.97-.26-1.47-.29-2.47-.06-4.93-.06-7.4-.09-.44,0-.5.2-.5.55v9.33l5.08-.92v-4.25c0-.23-.09-.52.32-.55.5-.06.85.12.91.46.03.12.03.23.03.35v3.73l3.76-.69,1.23.23c.03-.98.03-1.99,0-3Z"></path><path d="m147.15,4.75c-1.91-.69-3.88-.66-5.78-.12-1.88.55-2.91,1.99-2.94,3.93-.03,1.96,0,3.96,0,5.92l5.05.81v-6.15c.03-.4.21-.66.65-.66.41,0,.59.26.59.64v6.36h.03l5.08-.92c0-2.11-.03-4.22-.09-6.3-.03-1.68-.94-2.92-2.58-3.5Z"></path><path d="m157.96,14.63v2.51c0,.61-.21.72-.73.78-.38.03-.53-.09-.53-.49v-2.54l-5.08.92v11.58c0,.4.15.52.53.52,1.32-.03,2.61-.03,3.93,0,.47,0,.65-.12.62-.61-.03-1.7,0-3.41,0-5.11,0-.2,0-.49.32-.43.18.03.44.17.47.32.18.55.29,1.1.44,1.68.29,1.21.59,2.43.88,3.64.09.38.29.55.73.55,1.12-.03,2.2,0,3.32-.03.18,0,.35-.03.65-.03-.26-.95-.5-1.82-.7-2.66-.38-1.42-.76-2.83-1.12-4.25-.03-.17,0-.43.12-.58.85-.9,1.23-1.94,1.2-3.15v-3.06l-1.23-.23-3.82.66Z"></path><path d="m144.71,16.91v5.86c0,.17.06.4-.03.55-.12.2-.32.46-.56.52-.32.09-.56-.14-.65-.46-.03-.12-.03-.26-.03-.4v-6.3l-5.05-.81v.98c0,2.37-.06,4.74.03,7.08.06,1.79,1.09,3.18,2.82,3.7,1.73.55,3.52.55,5.29.12,1.35-.32,2.44-1.07,2.91-2.43.26-.75.38-1.59.38-2.37v-7.02l-5.11.98Z"></path><path d="m172.11,21.01v-5.32l-5.05-.92v12.51c0,.49.15.61.65.61,1.29-.03,2.58-.03,3.88,0,.44,0,.56-.14.56-.58-.03-2.11-.03-4.19-.03-6.3Z"></path></g></svg>