<svg xmlns="http://www.w3.org/2000/svg" width="161" height="40" viewBox="0 0 161 40" fill="none"><path d="M13.8019 0.254444L0 21.5782L29.0201 3.85161C24.7709 0.805362 19.3028 -0.620544 13.8019 0.254444Z" transform="translate(3.30225)" fill="black"></path><path d="M13.9411 -3.09057e-08C4.75081 2.98144 -0.980747 11.9906 0.139214 21.3886L13.9411 -3.09057e-08Z" transform="translate(0.000488281 0.999817)" fill="black"></path><path d="M-1.00525e-06 20.6432C8.63028 17.4998 14.0324 8.97673 13.176 4.94491e-07L-1.00525e-06 20.6432Z" transform="translate(27.4146 18.1108)" fill="black"></path><path d="M27.7684 0L-1.25656e-07 16.9488L33.4012 8.74988C32.2812 5.28233 30.3048 2.30089 27.7684 0Z" transform="translate(6.39795 5.34232)" fill="black"></path><path d="M5.99508 17.4349L33.9941 2.47245e-07L-1.5707e-08 8.32858C1.11996 11.9906 3.22812 15.0692 5.99508 17.4349Z" transform="translate(0.930176 17.5597)" fill="black"></path><path d="M15.4159 21.259L29.0201 2.47245e-07L1.25656e-07 18.0831C4.38102 21.0321 9.882 22.3284 15.4159 21.259Z" transform="translate(8.77002 18.3699)" fill="black"></path><path d="M1.2207e-05 6.57861C1.2207e-05 4.37494 1.2207e-05 2.17126 1.2207e-05 -4.9449e-07C1.2207e-05 2.20367 1.2207e-05 4.37494 1.2207e-05 6.57861Z" transform="translate(126.069 19.3098)" fill="black"></path><path d="M12.6654 5.80084C12.8631 4.92585 13.0607 4.05087 13.2584 3.17588C13.456 2.26849 13.6207 1.36109 13.8183 0.486104C13.9172 0.0972206 13.7195 -2.47245e-07 13.3572 -2.47245e-07C11.8419 -2.47245e-07 10.3267 -1.2314e-07 8.84439 0.0324068C8.64676 0.0324068 8.35029 0.259256 8.31735 0.42129C8.18559 0.810174 8.18559 1.26387 8.11971 1.68516C7.82325 3.56476 7.52679 5.44437 7.23033 7.32397C7.19739 7.51841 7.06563 7.71285 6.99975 7.90729C6.90093 7.90729 6.83505 7.87488 6.73623 7.87488C6.67035 7.29156 6.57153 6.70824 6.50565 6.15732C6.20919 4.27772 5.91273 2.39811 5.64921 0.518511C5.61627 0.194441 5.48451 0.0648139 5.15511 0.0648139C3.57399 0.0648139 1.99287 0.0648139 0.41175 0.0648139C0.08235 0.0648139 -0.049409 0.226848 0.016471 0.518511C0.181171 1.29628 0.378808 2.07404 0.543508 2.85181C0.807028 4.05087 1.07055 5.21752 1.33407 6.41657C1.59759 7.64804 1.82817 8.8795 2.15757 10.0786C2.32227 10.6295 2.42109 11.148 2.45403 11.6665L11.5784 10.6295C11.6772 10.2082 11.809 9.8193 11.9078 9.39801C12.1713 8.13414 12.4349 6.96749 12.6654 5.80084Z" transform="translate(74.3696 6.08771)" fill="black"></path><path d="M5.56955 8.1272C5.60249 7.38184 5.56955 6.60408 5.56955 5.85872C5.56955 5.08095 5.80013 4.72447 6.32717 4.72447C6.85421 4.72447 6.98597 4.98373 6.98597 5.85872C6.98597 6.7337 7.01891 7.6411 6.98597 8.51609C6.98597 8.93738 7.15067 9.09941 7.5789 9.09941C8.30358 9.067 8.99532 9.09941 9.72 9.09941C10.4776 9.09941 11.2352 9.09941 11.9929 9.09941C12.3881 9.09941 12.5858 8.96978 12.5528 8.54849C12.487 7.05777 12.487 5.56705 12.3552 4.07633C12.1905 2.39117 11.2352 1.15971 9.62117 0.576383C7.54595 -0.168977 5.40485 -0.168978 3.29669 0.446754C1.45205 0.965266 0.365029 2.29395 0.134449 4.17355C-0.030251 5.63187 0.00269099 7.12259 0.00269099 8.61331C0.00269099 9.22904 0.035633 9.84477 0.200333 10.4605L6.19541 9.77996C5.76719 9.39107 5.53661 8.84016 5.56955 8.1272Z" transform="translate(89.4707 5.80319)" fill="black"></path><path d="M12.6819 6.18973C12.6819 5.05548 12.5831 3.95365 12.4513 2.8194C12.3196 1.78238 11.7925 0.939801 10.7714 0.550918C10.1455 0.291662 9.48672 0.0972208 8.82792 0.0972208C6.12684 0.0324069 3.4587 0.0324072 0.757624 2.47245e-07C4.00529e-06 2.47245e-07 -2.0105e-06 7.72642e-08 -2.0105e-06 0.777767C-2.0105e-06 3.53236 -2.0105e-06 6.25454 -2.0105e-06 9.00913L5.69862 9.91652C5.69862 8.3934 5.69862 6.83786 5.69862 5.31474C5.69862 5.05548 5.63274 4.73141 6.06096 4.69901C6.62094 4.63419 7.01622 4.82863 7.0821 5.21752C7.11504 5.47677 7.14798 5.76844 7.14798 6.0601C7.14798 7.42119 7.14798 8.78228 7.14798 10.1434L12.7478 11.0184C12.7148 9.43042 12.6819 7.81007 12.6819 6.18973Z" transform="translate(104.23 6.05524)" fill="black"></path><path d="M7.11504 4.73141C7.11504 4.95826 7.11504 5.18511 7.0821 5.41196C7.01622 5.96288 6.35743 6.35176 5.89627 6.0601C5.76451 5.99528 5.69862 5.70362 5.69862 5.50918C5.69862 4.73141 5.69862 3.98605 5.69862 3.20829C5.69862 2.43052 5.69862 1.68516 5.69862 0.907395L-4.021e-06 -4.94491e-07C-4.021e-06 1.10184 -4.021e-06 2.20367 -4.021e-06 3.2731C-4.021e-06 7.16193 -4.021e-06 11.0508 -4.021e-06 14.9396C-4.021e-06 15.4257 0.098816 15.6201 0.658796 15.6201C2.1411 15.5877 3.6234 15.5877 5.13864 15.6201C5.5998 15.6201 5.73157 15.4905 5.73157 15.0368C5.69863 13.8702 5.73157 12.7035 5.73157 11.5369C5.73157 10.7915 5.73156 10.7915 6.52212 10.7591C7.37856 10.7591 8.26794 10.7591 9.12438 10.6619C10.4749 10.5323 11.7266 10.1434 12.2537 8.78228C12.5501 7.97211 12.7148 7.06471 12.7478 6.18972C12.7807 4.79623 12.7807 3.37032 12.7807 1.97682L7.18092 1.10184C7.11504 2.30089 7.11504 3.53235 7.11504 4.73141Z" transform="translate(104.197 16.717)" fill="black"></path><path d="M5.07276 2.47245e-07C3.6234 0.0324072 2.17404 0.0324072 0.724678 2.47245e-07C0.131758 2.47245e-07 -1.00525e-06 0.194442 -1.00525e-06 0.745359C0.032939 4.60178 -1.00525e-06 8.45821 -1.00525e-06 12.3146C-1.00525e-06 12.4443 -1.00525e-06 12.5739 -1.00525e-06 12.7035L5.69862 12.0554C5.69862 8.26377 5.69862 4.43975 5.69862 0.648139C5.69862 0.162035 5.53392 2.47245e-07 5.07276 2.47245e-07Z" transform="translate(66.7769 6.05524)" fill="black"></path><path d="M0.395282 1.55553C1.05408 2.88422 2.17404 3.62958 3.4587 4.2129C4.24926 4.56938 5.07276 4.92586 5.86332 5.31474C6.35742 5.574 6.85152 5.93047 6.88446 6.5462C6.9174 7.71285 6.9174 8.8795 6.88446 10.0462C6.88446 10.5647 6.4233 10.8887 5.99508 10.6295C5.7645 10.4998 5.53392 10.1434 5.50098 9.88412C5.4351 8.8795 5.46804 7.84248 5.46804 6.83786C5.46804 6.41657 5.30334 6.28695 4.90806 6.28695C3.49164 6.28695 2.04228 6.31936 0.625856 6.28695C0.164696 6.28695 -2.0105e-06 6.44898 -2.0105e-06 6.90268C0.032938 8.23136 2.00755e-06 9.56005 0.065882 10.8887C0.164702 12.8007 1.25172 14.2915 3.09636 14.9072C4.54572 15.3933 6.06096 15.4581 7.5762 15.2961C10.6396 14.972 12.5501 13.5137 12.5831 9.94893C12.5831 8.81469 12.5501 7.64804 12.5831 6.5138C12.649 4.27772 11.5619 2.68978 9.58554 1.71757C8.66322 1.26387 7.7409 0.874988 6.81858 0.421291C6.55506 0.291663 6.35742 0.162035 6.15978 4.94491e-07L0.164698 0.680546C0.197638 1.00462 0.263522 1.29628 0.395282 1.55553Z" transform="translate(89.5718 17.1384)" fill="black"></path><path d="M2.3058 3.7268C1.9764 4.92585 1.74582 6.12491 1.4823 7.32397C1.21878 8.52303 0.955261 9.68968 0.69174 10.8887C0.46116 11.9258 0.230578 12.9628 -2.0105e-06 13.9998C0.098818 14.0646 0.1647 14.097 0.19764 14.097C1.87758 14.097 3.55752 14.1294 5.23746 14.097C5.36922 14.097 5.56686 13.9026 5.5998 13.7729C5.69862 13.3517 5.76451 12.898 5.83039 12.4767C6.12685 10.5971 6.4233 8.68506 6.7527 6.80546C6.78564 6.51379 6.9174 6.25454 7.01622 5.96288C7.0821 5.96288 7.14798 5.93047 7.21387 5.93047C7.27975 6.0601 7.37856 6.18972 7.4115 6.31935C7.5762 7.29156 7.74091 8.23136 7.87267 9.20357C8.10325 10.7267 8.33383 12.2498 8.59734 13.8054C8.63029 13.935 8.82793 14.097 8.95969 14.097C10.6067 14.1294 12.2537 14.1294 13.8677 14.097C13.9666 14.097 14.1971 13.8378 14.1642 13.7081C13.9336 12.6387 13.7031 11.5369 13.4395 10.4674C13.176 9.30079 12.8796 8.13414 12.616 6.96749C12.3196 5.70362 12.0231 4.47216 11.7596 3.20829C11.6278 2.56015 11.4302 1.8796 11.4961 1.26387C11.529 0.84258 11.6278 0.42129 11.7266 2.47245e-07L2.60226 1.03702C2.6352 1.94442 2.56932 2.8194 2.3058 3.7268Z" transform="translate(74.2549 18.2078)" fill="black"></path><path d="M-1.00525e-06 11.9582C-1.00525e-06 12.4443 0.098819 12.6711 0.658799 12.6387C2.1411 12.6063 3.6234 12.6063 5.13864 12.6387C5.56686 12.6387 5.73156 12.5091 5.73156 12.0554C5.73156 8.03692 5.73156 4.01846 5.73156 -2.47245e-07L0.032941 0.648139C1.00378e-06 4.40735 -1.00525e-06 8.16655 -1.00525e-06 11.9582Z" transform="translate(66.7769 19.6987)" fill="black"></path><path d="M9.60275 11.4651C8.68043 11.0114 7.72517 10.6225 6.80285 10.1688C5.97935 9.77995 5.51819 9.13181 5.58407 8.15961C5.61701 7.31703 5.58407 6.50685 5.58407 5.66427C5.58407 5.04854 5.84759 4.72447 6.30875 4.72447C6.93461 4.72447 7.00049 5.14576 7.00049 5.59946C7.00049 6.57167 7.03343 7.57628 7.00049 8.54849C7.00049 8.93737 7.16519 9.13181 7.56047 9.09941C8.28515 9.09941 9.04277 9.09941 9.76745 9.09941C10.4921 9.09941 11.2497 9.09941 11.9744 9.09941C12.4026 9.09941 12.6003 9.00219 12.5674 8.54849C12.5015 7.05777 12.5015 5.56705 12.3368 4.07633C12.1721 2.39117 11.2168 1.19211 9.60275 0.576383C7.52753 -0.168977 5.38643 -0.168978 3.27827 0.446754C1.43363 0.965265 0.346613 2.29395 0.148973 4.14115C-0.0157275 5.66427 -0.0157254 7.21981 0.0172146 8.74293C0.0501546 9.58551 0.214855 10.4929 0.511315 11.2707C1.03835 12.6318 2.25713 13.3447 3.54179 13.9604C3.64061 13.9929 3.73943 14.0577 3.83825 14.0901L11.7768 13.1827C11.2827 12.4697 10.4921 11.8864 9.60275 11.4651Z" transform="translate(52.0684 5.80865)" fill="black"></path><path d="M5.96617 1.91201C6.42733 2.17127 6.88849 2.49533 6.88849 3.07866C6.92143 4.27772 6.92143 5.44437 6.88849 6.64342C6.88849 7.06471 6.62497 7.29156 6.19675 7.25916C5.70265 7.22675 5.50501 6.93509 5.50501 6.48139C5.50501 5.47677 5.47207 4.43975 5.50501 3.43514C5.50501 3.01385 5.37325 2.85181 4.91209 2.85181C3.49567 2.88422 2.07925 2.88422 0.662828 2.85181C0.135788 2.85181 -0.0289122 3.04625 0.00402784 3.53236C0.0369679 4.86104 0.00402683 6.15732 0.0699069 7.486C0.168727 9.20357 0.959288 10.5971 2.63923 11.31C4.71445 12.2174 6.88849 12.1526 9.06253 11.6017C11.0389 11.1156 12.2248 9.75449 12.4224 7.84248C12.6201 5.83325 12.6201 3.79161 12.4224 1.81479C12.3565 1.10184 12.093 0.518511 11.7307 -4.94491e-07L3.79213 0.907395C4.51681 1.23146 5.24149 1.55553 5.96617 1.91201Z" transform="translate(52.147 20.6062)" fill="black"></path><path d="M9.02556 5.47677C9.02556 4.76382 9.02556 4.73141 9.78318 4.73141C10.3761 4.73141 11.002 4.69901 11.5949 4.73141C12.056 4.76382 12.2537 4.60179 12.2207 4.11568C12.1878 2.94903 12.1878 1.78238 12.2207 0.615732C12.2207 0.162035 12.056 1.23623e-07 11.5949 1.23623e-07C10.3102 0.0324071 8.99262 1.23623e-07 7.70796 1.23623e-07C5.36922 1.23623e-07 3.03049 1.23623e-07 0.691744 1.23623e-07C0.197644 1.23623e-07 2.0105e-06 0.162035 2.0105e-06 0.680546C0.032942 1.81479 0.032942 2.98144 2.0105e-06 4.11568C2.0105e-06 4.53697 0.164698 4.73141 0.592918 4.69901C1.28466 4.6666 1.94346 4.73141 2.6352 4.69901C3.16224 4.6666 3.35988 4.86104 3.35988 5.41196C3.35988 6.93509 3.35988 8.45821 3.35988 9.98134L9.02556 11.0184C9.02556 9.17117 9.02556 7.32397 9.02556 5.47677Z" transform="translate(147.777 6.02286)" fill="black"></path><path d="M12.7148 5.86566C12.7148 4.86104 12.616 3.88883 12.4843 2.88422C12.3196 1.68516 11.6608 0.810174 10.5079 0.42129C9.98083 0.226849 9.42085 0.129628 8.86087 0.0972208C6.0939 0.0324069 3.32694 0.0324072 0.559978 2.47245e-07C0.065878 2.47245e-07 4.021e-06 0.226849 4.021e-06 0.615732C4.021e-06 4.11568 4.021e-06 7.58322 4.021e-06 11.0832L5.69862 10.0462C5.69862 9.68968 5.69862 9.36561 5.69862 9.00913C5.69862 7.77767 5.69862 6.5138 5.69862 5.28233C5.69862 5.02308 5.5998 4.69901 6.06097 4.6666C6.62095 4.60179 7.01623 4.79623 7.08211 5.18511C7.11505 5.31474 7.11504 5.44437 7.11504 5.57399C7.11504 6.96749 7.11504 8.36099 7.11504 9.75449L11.3314 8.97672L12.7148 9.23598C12.7478 8.13414 12.7478 6.9999 12.7148 5.86566Z" transform="translate(133.81 6.05524)" fill="black"></path><path d="M9.79782 0.588013C7.65672 -0.189754 5.44974 -0.157347 3.30864 0.458385C1.20048 1.07412 0.047576 2.69447 0.014636 4.86573C-0.018304 7.0694 0.014636 9.30548 0.014636 11.5092L5.68032 12.4166C5.68032 10.1805 5.68032 7.9768 5.68032 5.74072C5.68032 5.6759 5.68032 5.57868 5.68032 5.51387C5.71326 5.06017 5.91091 4.76851 6.40501 4.76851C6.86617 4.76851 7.06381 5.06017 7.06381 5.48146C7.06381 6.32404 7.06381 7.13422 7.06381 7.9768C7.06381 9.49992 7.06381 11.0555 7.06381 12.5786C7.06381 12.5786 7.06381 12.5786 7.06381 12.611H7.09674L12.7954 11.574C12.7954 9.20826 12.7624 6.84255 12.6965 4.50925C12.6636 2.62965 11.6425 1.23615 9.79782 0.588013Z" transform="translate(119.005 5.7915)" fill="black"></path><path d="M7.11503 0.74536C7.11503 1.68516 7.11503 2.62496 7.11503 3.56476C7.11503 4.24531 6.88445 4.37494 6.29153 4.43975C5.86331 4.47216 5.69862 4.34253 5.69862 3.88883C5.69862 3.56476 5.69862 3.24069 5.69862 2.91662C5.69862 2.30089 5.69862 1.65275 5.69862 1.03702L4.021e-06 2.07404C4.021e-06 6.41658 4.021e-06 10.7267 4.021e-06 15.0692C4.021e-06 15.5229 0.1647 15.6526 0.59292 15.6526C2.07522 15.6201 3.52458 15.6201 5.00688 15.6526C5.53392 15.6526 5.73156 15.5229 5.69862 14.972C5.66568 13.06 5.69862 11.148 5.69862 9.23598C5.69862 9.00913 5.69862 8.68506 6.06096 8.74988C6.2586 8.78228 6.55506 8.94432 6.588 9.10635C6.78564 9.72208 6.9174 10.3378 7.0821 10.986C7.4115 12.347 7.7409 13.7081 8.0703 15.0692C8.16912 15.4905 8.3997 15.685 8.8938 15.685C10.1455 15.6526 11.3643 15.685 12.616 15.6526C12.8137 15.6526 13.0113 15.6202 13.3407 15.6202C13.0442 14.5507 12.7807 13.5785 12.5501 12.6387C12.1219 11.0508 11.6937 9.46283 11.2984 7.87489C11.2655 7.68045 11.2984 7.38878 11.4302 7.22675C12.3854 6.22213 12.8137 5.05548 12.7807 3.69439C12.7807 2.56015 12.7807 1.3935 12.7807 0.259256L11.3972 -4.94491e-07L7.11503 0.74536Z" transform="translate(133.81 16.717)" fill="black"></path><path d="M7.10362 1.16665C7.10362 3.37032 7.10362 5.57399 7.10362 7.74526C7.10362 7.9397 7.16949 8.19896 7.07067 8.36099C6.93891 8.58784 6.70834 8.8795 6.44482 8.94432C6.08248 9.04154 5.81895 8.78228 5.72013 8.4258C5.68719 8.29618 5.68719 8.13414 5.68719 7.97211C5.68719 5.6064 5.68719 3.2731 5.68719 0.907394L0.0215159 2.47245e-07C0.0215159 0.356477 0.0215159 0.712952 0.0215159 1.10184C0.0215159 3.7592 -0.0443722 6.41657 0.0544478 9.04154C0.120328 11.0508 1.27323 12.6063 3.21669 13.1896C5.16015 13.8054 7.16949 13.8054 9.14589 13.3193C10.6611 12.9628 11.8799 12.1202 12.4069 10.5971C12.7034 9.75449 12.8352 8.81469 12.8352 7.9397C12.8352 5.31474 12.8352 2.68978 12.8352 0.0648144L7.10362 1.16665Z" transform="translate(118.965 18.856)" fill="black"></path><path d="M5.66568 6.9999C5.66568 5.02308 5.66568 3.01385 5.66568 1.03702L-4.021e-06 4.94491e-07C-4.021e-06 1.58794 -4.021e-06 3.14347 -4.021e-06 4.73141C-4.021e-06 7.84248 -4.021e-06 10.9211 -4.021e-06 14.0322C-4.021e-06 14.5831 0.1647 14.7128 0.72468 14.7128C2.17404 14.6803 3.6234 14.6803 5.07277 14.7128C5.56687 14.7128 5.69862 14.5507 5.69862 14.0646C5.66568 11.6989 5.66568 9.36561 5.66568 6.9999Z" transform="translate(151.136 17.6246)" fill="black"></path></svg>