<svg xmlns="http://www.w3.org/2000/svg" width="23" height="16" viewBox="0 0 23 16" fill="none"><path d="M20.8984 2.34375C21.0547 3.04688 21.2109 4.14062 21.2891 5.54688L21.3281 7.5L21.2891 9.45312C21.2109 10.9375 21.0547 11.9922 20.8984 12.6953C20.7422 13.1641 20.5078 13.5547 20.1953 13.8672C19.8438 14.2188 19.4531 14.4531 18.9844 14.5703C18.2812 14.7656 16.7188 14.8828 14.2188 14.9609L10.6641 15L7.10938 14.9609C4.60938 14.8828 3.00781 14.7656 2.34375 14.5703C1.875 14.4531 1.44531 14.2188 1.13281 13.8672C0.78125 13.5547 0.546875 13.1641 0.429688 12.6953C0.234375 11.9922 0.117188 10.9375 0.0390625 9.45312L0 7.5C0 6.95312 0 6.28906 0.0390625 5.54688C0.117188 4.14062 0.234375 3.04688 0.429688 2.34375C0.546875 1.875 0.78125 1.48438 1.13281 1.13281C1.44531 0.820312 1.875 0.585938 2.34375 0.429688C3.00781 0.273438 4.60938 0.117188 7.10938 0.0390625L10.6641 0L14.2188 0.0390625C16.7188 0.117188 18.2812 0.273438 18.9844 0.429688C19.4531 0.585938 19.8438 0.820312 20.1953 1.13281C20.5078 1.48438 20.7422 1.875 20.8984 2.34375ZM8.47656 10.7031L14.0625 7.5L8.47656 4.33594V10.7031Z" transform="translate(0.886719 0.25)" fill="black"></path></svg>